<svg width="0" height="0" fill="none" style="visibility: hidden; position: absolute;" aria-hidden="true">
    <symbol id="ball" width="16" height="16" viewBox="0 0 16 16" fill="none" xmlns="http://www.w3.org/2000/svg">
        <path d="M8 15C6.14348 15 4.36301 14.2625 3.05025 12.9497C1.7375 11.637 1 9.85652 1 8C1 6.14348 1.7375 4.36301 3.05025 3.05025C4.36301 1.7375 6.14348 1 8 1C9.85652 1 11.637 1.7375 12.9497 3.05025C14.2625 4.36301 15 6.14348 15 8C15 9.85652 14.2625 11.637 12.9497 12.9497C11.637 14.2625 9.85652 15 8 15ZM8 14C8.78793 14 9.56815 13.8448 10.2961 13.5433C11.0241 13.2417 11.6855 12.7998 12.2426 12.2426C12.7998 11.6855 13.2417 11.0241 13.5433 10.2961C13.8448 9.56815 14 8.78793 14 8C14 7.21207 13.8448 6.43185 13.5433 5.7039C13.2417 4.97595 12.7998 4.31451 12.2426 3.75736C11.6855 3.20021 11.0241 2.75825 10.2961 2.45672C9.56815 2.15519 8.78793 2 8 2C6.4087 2 4.88258 2.63214 3.75736 3.75736C2.63214 4.88258 2 6.4087 2 8C2 9.5913 2.63214 11.1174 3.75736 12.2426C4.88258 13.3679 6.4087 14 8 14Z" fill="#181D27"/>
        <path d="M2.91901 4.19208C3.16901 3.93608 3.41301 3.69608 3.65301 3.47208C3.92601 3.95108 4.27501 4.38008 4.68401 4.74208L4.17601 5.62408C3.68378 5.21636 3.25949 4.733 2.91901 4.19208ZM13.133 4.10908C12.7842 4.6835 12.3417 5.19555 11.824 5.62408L11.316 4.74308C11.7465 4.36074 12.1084 3.90753 12.386 3.40308C12.629 3.62308 12.878 3.85808 13.133 4.10908ZM7.28101 6.95708L7.45501 5.97108C7.81729 6.01035 8.18274 6.01035 8.54501 5.97108L8.71901 6.95708C8.24138 7.01413 7.75865 7.01413 7.28101 6.95708ZM6.30101 6.75708C5.8466 6.62242 5.40986 6.43409 5.00001 6.19608L5.50001 5.33008C5.80896 5.50883 6.13616 5.65399 6.47601 5.76308L6.30101 6.75508V6.75708ZM11.001 6.19708C10.5908 6.43482 10.1537 6.62281 9.69901 6.75708L9.52401 5.76408C9.86387 5.65499 10.1911 5.50983 10.5 5.33108L11 6.19708H11.001ZM2.86401 11.8971C3.21332 11.3206 3.6568 10.8069 4.17601 10.3771L4.68401 11.2571C4.26401 11.6311 3.90501 12.0751 3.62901 12.5701C3.37901 12.3601 3.12401 12.1371 2.86401 11.8971ZM13.138 11.8991C12.8878 12.1292 12.6324 12.3535 12.372 12.5721C12.0967 12.0773 11.7396 11.6327 11.316 11.2571L11.824 10.3771C12.343 10.8061 12.788 11.3201 13.138 11.8991ZM7.28001 9.04308C7.75765 8.98603 8.24038 8.98603 8.71801 9.04308L8.54401 10.0291C8.18174 9.9898 7.81629 9.9898 7.45401 10.0291L7.28001 9.04308ZM6.30001 9.24308L6.47501 10.2361C6.13516 10.3452 5.80796 10.4903 5.49901 10.6691L5.00001 9.80308C5.4099 9.56541 5.84665 9.37742 6.30101 9.24308H6.30001ZM11 9.80308L10.5 10.6691C10.1908 10.4901 9.86329 10.3449 9.52301 10.2361L9.69801 9.24408C10.158 9.37908 10.593 9.56808 10.999 9.80308H11Z" fill="#181D27"/>
    </symbol>
    <symbol id="calendar" width="16" height="16" viewBox="0 0 16 16" fill="none" xmlns="http://www.w3.org/2000/svg">
        <path d="M2 6V14H14V3H12V3.5C12 3.63261 11.9473 3.75979 11.8536 3.85355C11.7598 3.94732 11.6326 4 11.5 4C11.3674 4 11.2402 3.94732 11.1464 3.85355C11.0527 3.75979 11 3.63261 11 3.5V3H5V3.5C5 3.63261 4.94732 3.75979 4.85355 3.85355C4.75979 3.94732 4.63261 4 4.5 4C4.36739 4 4.24021 3.94732 4.14645 3.85355C4.05268 3.75979 4 3.63261 4 3.5V3H2V5H14V6H2ZM5 2H11V1.5C11 1.36739 11.0527 1.24021 11.1464 1.14645C11.2402 1.05268 11.3674 1 11.5 1C11.6326 1 11.7598 1.05268 11.8536 1.14645C11.9473 1.24021 12 1.36739 12 1.5V2H14.5C14.6326 2 14.7598 2.05268 14.8536 2.14645C14.9473 2.24021 15 2.36739 15 2.5V14.5C15 14.6326 14.9473 14.7598 14.8536 14.8536C14.7598 14.9473 14.6326 15 14.5 15H1.5C1.36739 15 1.24021 14.9473 1.14645 14.8536C1.05268 14.7598 1 14.6326 1 14.5V2.5C1 2.36739 1.05268 2.24021 1.14645 2.14645C1.24021 2.05268 1.36739 2 1.5 2H4V1.5C4 1.36739 4.05268 1.24021 4.14645 1.14645C4.24021 1.05268 4.36739 1 4.5 1C4.63261 1 4.75979 1.05268 4.85355 1.14645C4.94732 1.24021 5 1.36739 5 1.5V2ZM4.5 8H5.5C5.63261 8 5.75979 8.05268 5.85355 8.14645C5.94732 8.24021 6 8.36739 6 8.5C6 8.63261 5.94732 8.75979 5.85355 8.85355C5.75979 8.94732 5.63261 9 5.5 9H4.5C4.36739 9 4.24021 8.94732 4.14645 8.85355C4.05268 8.75979 4 8.63261 4 8.5C4 8.36739 4.05268 8.24021 4.14645 8.14645C4.24021 8.05268 4.36739 8 4.5 8ZM4.5 11H5.5C5.63261 11 5.75979 11.0527 5.85355 11.1464C5.94732 11.2402 6 11.3674 6 11.5C6 11.6326 5.94732 11.7598 5.85355 11.8536C5.75979 11.9473 5.63261 12 5.5 12H4.5C4.36739 12 4.24021 11.9473 4.14645 11.8536C4.05268 11.7598 4 11.6326 4 11.5C4 11.3674 4.05268 11.2402 4.14645 11.1464C4.24021 11.0527 4.36739 11 4.5 11ZM7.5 8H8.5C8.63261 8 8.75979 8.05268 8.85355 8.14645C8.94732 8.24021 9 8.36739 9 8.5C9 8.63261 8.94732 8.75979 8.85355 8.85355C8.75979 8.94732 8.63261 9 8.5 9H7.5C7.36739 9 7.24021 8.94732 7.14645 8.85355C7.05268 8.75979 7 8.63261 7 8.5C7 8.36739 7.05268 8.24021 7.14645 8.14645C7.24021 8.05268 7.36739 8 7.5 8ZM7.5 11H8.5C8.63261 11 8.75979 11.0527 8.85355 11.1464C8.94732 11.2402 9 11.3674 9 11.5C9 11.6326 8.94732 11.7598 8.85355 11.8536C8.75979 11.9473 8.63261 12 8.5 12H7.5C7.36739 12 7.24021 11.9473 7.14645 11.8536C7.05268 11.7598 7 11.6326 7 11.5C7 11.3674 7.05268 11.2402 7.14645 11.1464C7.24021 11.0527 7.36739 11 7.5 11ZM10.5 8H11.5C11.6326 8 11.7598 8.05268 11.8536 8.14645C11.9473 8.24021 12 8.36739 12 8.5C12 8.63261 11.9473 8.75979 11.8536 8.85355C11.7598 8.94732 11.6326 9 11.5 9H10.5C10.3674 9 10.2402 8.94732 10.1464 8.85355C10.0527 8.75979 10 8.63261 10 8.5C10 8.36739 10.0527 8.24021 10.1464 8.14645C10.2402 8.05268 10.3674 8 10.5 8ZM10.5 11H11.5C11.6326 11 11.7598 11.0527 11.8536 11.1464C11.9473 11.2402 12 11.3674 12 11.5C12 11.6326 11.9473 11.7598 11.8536 11.8536C11.7598 11.9473 11.6326 12 11.5 12H10.5C10.3674 12 10.2402 11.9473 10.1464 11.8536C10.0527 11.7598 10 11.6326 10 11.5C10 11.3674 10.0527 11.2402 10.1464 11.1464C10.2402 11.0527 10.3674 11 10.5 11Z" fill="#181D27"/>
    </symbol>
    <symbol id="cancle-circle" width="13" height="14" viewBox="0 0 13 14" fill="none" xmlns="http://www.w3.org/2000/svg">
        <path d="M4.52269 5.52273C4.42906 5.61648 4.37646 5.74356 4.37646 5.87606C4.37646 6.00856 4.42906 6.13565 4.52269 6.2294L5.95936 7.66673L4.52269 9.1034C4.43437 9.19818 4.38629 9.32354 4.38857 9.45308C4.39086 9.58261 4.44334 9.7062 4.53494 9.79781C4.62655 9.88942 4.75014 9.94189 4.87968 9.94418C5.00921 9.94647 5.13457 9.89838 5.22936 9.81006L6.66669 8.37473L8.10336 9.8114C8.19814 9.89972 8.32351 9.9478 8.45304 9.94551C8.58257 9.94323 8.70616 9.89075 8.79777 9.79914C8.88938 9.70754 8.94186 9.58395 8.94414 9.45441C8.94643 9.32488 8.89834 9.19951 8.81003 9.10473L7.37336 7.66673L8.81003 6.23006C8.85915 6.18429 8.89855 6.12909 8.92588 6.06775C8.95321 6.00642 8.9679 5.94021 8.96909 5.87308C8.97027 5.80594 8.95792 5.73926 8.93277 5.677C8.90763 5.61474 8.8702 5.55818 8.82272 5.5107C8.77524 5.46323 8.71868 5.4258 8.65642 5.40065C8.59416 5.3755 8.52748 5.36315 8.46034 5.36434C8.39321 5.36552 8.327 5.38021 8.26567 5.40754C8.20433 5.43487 8.14913 5.47427 8.10336 5.5234L6.66669 6.95873L5.22869 5.52273C5.13494 5.4291 5.00786 5.3765 4.87536 5.3765C4.74286 5.3765 4.61578 5.4291 4.52202 5.52273" fill="#535862"/>
        <path fill-rule="evenodd" clip-rule="evenodd" d="M6.5 1C2.91005 1 0 3.91005 0 7.5C0 11.0899 2.91005 14 6.5 14C10.0899 14 13 11.0899 13 7.5C13 3.91005 10.0899 1 6.5 1ZM0.975 7.5C0.975 6.03468 1.5571 4.62937 2.59324 3.59324C3.62937 2.5571 5.03468 1.975 6.5 1.975C7.96532 1.975 9.37063 2.5571 10.4068 3.59324C11.4429 4.62937 12.025 6.03468 12.025 7.5C12.025 8.96532 11.4429 10.3706 10.4068 11.4068C9.37063 12.4429 7.96532 13.025 6.5 13.025C5.03468 13.025 3.62937 12.4429 2.59324 11.4068C1.5571 10.3706 0.975 8.96532 0.975 7.5Z" fill="#535862"/>
    </symbol>
    <symbol id="crown" width="15" height="14" viewBox="0 0 15 14" fill="none" xmlns="http://www.w3.org/2000/svg">
        <g clip-path="url(#clip0_592_43333__crown)">
            <path d="M1.66667 10.3333L0 1.16668L4.58333 5.33334L7.5 0.333344L10.4167 5.33334L15 1.16668L13.3333 10.3333H1.66667ZM13.3333 12.8333C13.3333 13.3333 13 13.6667 12.5 13.6667H2.5C2 13.6667 1.66667 13.3333 1.66667 12.8333V12H13.3333V12.8333Z" fill="#F6D523"/>
        </g>
        <defs>
            <clipPath id="clip0_592_43333__crown">
                <rect width="15" height="13.3333" fill="white" transform="translate(0 0.333344)"/>
            </clipPath>
        </defs>
    </symbol>
    <symbol id="document" width="16" height="16" viewBox="0 0 16 16" fill="none" xmlns="http://www.w3.org/2000/svg">
        <path d="M13 6H9V2H3V14H13V6ZM12.586 5L10 2.414V5H12.586ZM2.5 1H10L14 5V14.5C14 14.6326 13.9473 14.7598 13.8536 14.8536C13.7598 14.9473 13.6326 15 13.5 15H2.5C2.36739 15 2.24021 14.9473 2.14645 14.8536C2.05268 14.7598 2 14.6326 2 14.5V1.5C2 1.36739 2.05268 1.24021 2.14645 1.14645C2.24021 1.05268 2.36739 1 2.5 1ZM5 8H11V9H5V8ZM5 5H7.5V6H5V5ZM5 11H11V12H5V11Z" fill="#181D27"/>
    </symbol>
    <symbol id="google-icon" width="24" height="24" viewBox="0 0 24 24" fill="none" xmlns="http://www.w3.org/2000/svg">
        <g clip-path="url(#clip0_334_7596__google-icon)">
            <path d="M23.7663 12.2764C23.7663 11.4607 23.7001 10.6406 23.559 9.83807H12.2402V14.4591H18.722C18.453 15.9494 17.5888 17.2678 16.3233 18.1056V21.1039H20.1903C22.4611 19.0139 23.7663 15.9274 23.7663 12.2764Z" fill="#4285F4"/>
            <path d="M12.24 24.0008C15.4764 24.0008 18.2058 22.9382 20.1944 21.1039L16.3274 18.1055C15.2516 18.8375 13.8626 19.252 12.2444 19.252C9.11376 19.252 6.45934 17.1399 5.50693 14.3003H1.51648V17.3912C3.55359 21.4434 7.70278 24.0008 12.24 24.0008Z" fill="#34A853"/>
            <path d="M5.50277 14.3003C5.00011 12.8099 5.00011 11.1961 5.50277 9.70575V6.61481H1.51674C-0.185266 10.0056 -0.185266 14.0004 1.51674 17.3912L5.50277 14.3003Z" fill="#FBBC04"/>
            <path d="M12.24 4.74966C13.9508 4.7232 15.6043 5.36697 16.8433 6.54867L20.2694 3.12262C18.1 1.0855 15.2207 -0.034466 12.24 0.000808666C7.70277 0.000808666 3.55359 2.55822 1.51648 6.61481L5.50252 9.70575C6.45052 6.86173 9.10935 4.74966 12.24 4.74966Z" fill="#EA4335"/>
        </g>
        <defs>
            <clipPath id="clip0_334_7596__google-icon">
                <rect width="24" height="24" fill="white"/>
            </clipPath>
        </defs>
    </symbol>
    <symbol id="music" width="16" height="16" viewBox="0 0 16 16" fill="none" xmlns="http://www.w3.org/2000/svg">
        <path d="M14 8.268V8C14 7.21207 13.8448 6.43185 13.5433 5.7039C13.2417 4.97595 12.7998 4.31451 12.2426 3.75736C11.6855 3.20021 11.0241 2.75825 10.2961 2.45672C9.56815 2.15519 8.78793 2 8 2C7.21207 2 6.43185 2.15519 5.7039 2.45672C4.97595 2.75825 4.31451 3.20021 3.75736 3.75736C3.20021 4.31451 2.75825 4.97595 2.45672 5.7039C2.15519 6.43185 2 7.21207 2 8V8.268C2.30403 8.09246 2.64892 8.00005 2.99999 8.00005C3.35106 8.00005 3.69594 8.09246 3.99998 8.26799C4.30401 8.44352 4.55649 8.69599 4.73203 9.00002C4.90757 9.30405 4.99999 9.64893 5 10V12C5 12.5304 4.78929 13.0391 4.41421 13.4142C4.03914 13.7893 3.53043 14 3 14C2.46957 14 1.96086 13.7893 1.58579 13.4142C1.21071 13.0391 1 12.5304 1 12V8C1 6.14348 1.7375 4.36301 3.05025 3.05025C4.36301 1.7375 6.14348 1 8 1C9.85652 1 11.637 1.7375 12.9497 3.05025C14.2625 4.36301 15 6.14348 15 8V12C15 12.5304 14.7893 13.0391 14.4142 13.4142C14.0391 13.7893 13.5304 14 13 14C12.4696 14 11.9609 13.7893 11.5858 13.4142C11.2107 13.0391 11 12.5304 11 12V10C11 9.64893 11.0924 9.30405 11.268 9.00002C11.4435 8.69599 11.696 8.44352 12 8.26799C12.3041 8.09246 12.6489 8.00005 13 8.00005C13.3511 8.00005 13.696 8.09246 14 8.268ZM14 10C14 9.73478 13.8946 9.48043 13.7071 9.29289C13.5196 9.10536 13.2652 9 13 9C12.7348 9 12.4804 9.10536 12.2929 9.29289C12.1054 9.48043 12 9.73478 12 10V12C12 12.2652 12.1054 12.5196 12.2929 12.7071C12.4804 12.8946 12.7348 13 13 13C13.2652 13 13.5196 12.8946 13.7071 12.7071C13.8946 12.5196 14 12.2652 14 12V10ZM2 10V12C2 12.2652 2.10536 12.5196 2.29289 12.7071C2.48043 12.8946 2.73478 13 3 13C3.26522 13 3.51957 12.8946 3.70711 12.7071C3.89464 12.5196 4 12.2652 4 12V10C4 9.73478 3.89464 9.48043 3.70711 9.29289C3.51957 9.10536 3.26522 9 3 9C2.73478 9 2.48043 9.10536 2.29289 9.29289C2.10536 9.48043 2 9.73478 2 10Z" fill="#181D27"/>
    </symbol>
    <symbol id="naver-icon" width="26" height="26" viewBox="0 0 26 26" fill="none" xmlns="http://www.w3.org/2000/svg">
        <rect width="26" height="26" rx="5" fill="#00BF18"/>
        <path d="M7 7V19H11V13L15 19H19V7H15V13.2857L11 7H7Z" fill="white"/>
    </symbol>
    <symbol id="pen" width="16" height="16" viewBox="0 0 16 16" fill="none" xmlns="http://www.w3.org/2000/svg">
        <path d="M3.10988 10.5101L6.14088 12.2601L9.64088 6.19808L6.61088 4.44808L3.11088 10.5111L3.10988 10.5101ZM2.73688 11.4501L3.25088 13.7671L5.51488 13.0531L2.73688 11.4501ZM7.10988 3.58208L10.1399 5.33208L11.0259 3.79908L7.99488 2.04908L7.10988 3.58208ZM1.62988 11.0751L7.62988 0.684082L12.3919 3.43308L6.39288 13.8251H6.39388L2.51188 15.0491L1.62988 11.0751ZM7.62988 15.0481V14.0481H14.6299V15.0481H7.62988Z" fill="#181D27"/>
    </symbol>
    <symbol id="star-empty" width="24" height="23" viewBox="0 0 24 23" fill="none" xmlns="http://www.w3.org/2000/svg">
        <g clip-path="url(#clip0_596_27988__star-empty)">
            <path d="M12.5167 18.6359L13.0335 17.7797C12.3979 17.3961 11.6021 17.3961 10.9665 17.7797L6.09627 20.7192L7.38873 15.179C7.55739 14.456 7.3117 13.6991 6.75057 13.213L2.44617 9.48406L8.11167 9.0034C8.85083 8.94069 9.49456 8.47401 9.78404 7.79101L12 2.5626L14.216 7.79101C14.5054 8.47402 15.1492 8.94069 15.8883 9.0034L21.5538 9.48406L17.2494 13.213C16.6883 13.6991 16.4426 14.456 16.6113 15.179L17.9037 20.7192L13.0335 17.7797L12.5167 18.6359Z" stroke="#FFDC22" stroke-width="2"/>
        </g>
        <defs>
            <clipPath id="clip0_596_27988__star-empty">
                <rect width="24" height="22.8" fill="white"/>
            </clipPath>
        </defs>
    </symbol>
    <symbol id="star" width="26" height="24" viewBox="0 0 26 24" fill="none" xmlns="http://www.w3.org/2000/svg">
        <g clip-path="url(#clip0_631_9425__star)">
            <g clip-path="url(#clip1_631_9425__star)">
                <path d="M12.4833 19.2359C12.8011 19.044 13.1989 19.0441 13.5167 19.2359L18.387 22.1754C19.1443 22.6324 20.0785 21.9535 19.8776 21.092L18.5851 15.5518C18.5008 15.1903 18.6236 14.8118 18.9042 14.5688L23.2086 10.8399C23.8772 10.2607 23.5198 9.16239 22.6384 9.08761L16.9729 8.60695C16.6033 8.5756 16.2814 8.34226 16.1367 8.00076L13.9207 2.77234C13.5761 1.95932 12.4239 1.95932 12.0793 2.77235L9.86332 8.00076C9.71858 8.34226 9.39671 8.5756 9.02714 8.60695L3.36163 9.08761C2.48021 9.16239 2.1228 10.2607 2.79139 10.8399L7.0958 14.5688C7.37636 14.8118 7.49921 15.1903 7.41487 15.5518L6.12241 21.092C5.92145 21.9535 6.85568 22.6324 7.613 22.1754L12.4833 19.2359Z" fill="#FFDC22"/>
            </g>
        </g>
        <defs>
            <clipPath id="clip0_631_9425__star">
                <rect width="26" height="22.8" fill="white" transform="translate(0 0.599976)"/>
            </clipPath>
            <clipPath id="clip1_631_9425__star">
                <rect width="24" height="22.8" fill="white" transform="translate(1 0.599976)"/>
            </clipPath>
        </defs>
    </symbol>
    <symbol id="user" width="16" height="16" viewBox="0 0 16 16" fill="none" xmlns="http://www.w3.org/2000/svg">
        <path d="M8 8C8.79565 8 9.55871 7.68393 10.1213 7.12132C10.6839 6.55871 11 5.79565 11 5C11 4.20435 10.6839 3.44129 10.1213 2.87868C9.55871 2.31607 8.79565 2 8 2C7.20435 2 6.44129 2.31607 5.87868 2.87868C5.31607 3.44129 5 4.20435 5 5C5 5.79565 5.31607 6.55871 5.87868 7.12132C6.44129 7.68393 7.20435 8 8 8ZM8 9C6.93913 9 5.92172 8.57857 5.17157 7.82843C4.42143 7.07828 4 6.06087 4 5C4 3.93913 4.42143 2.92172 5.17157 2.17157C5.92172 1.42143 6.93913 1 8 1C9.06087 1 10.0783 1.42143 10.8284 2.17157C11.5786 2.92172 12 3.93913 12 5C12 6.06087 11.5786 7.07828 10.8284 7.82843C10.0783 8.57857 9.06087 9 8 9ZM13 14V12.5C13 12.1022 12.842 11.7206 12.5607 11.4393C12.2794 11.158 11.8978 11 11.5 11H4.5C4.10218 11 3.72064 11.158 3.43934 11.4393C3.15804 11.7206 3 12.1022 3 12.5V14C3 14.1326 2.94732 14.2598 2.85355 14.3536C2.75979 14.4473 2.63261 14.5 2.5 14.5C2.36739 14.5 2.24021 14.4473 2.14645 14.3536C2.05268 14.2598 2 14.1326 2 14V12.5C2 11.837 2.26339 11.2011 2.73223 10.7322C3.20107 10.2634 3.83696 10 4.5 10H11.5C12.163 10 12.7989 10.2634 13.2678 10.7322C13.7366 11.2011 14 11.837 14 12.5V14C14 14.1326 13.9473 14.2598 13.8536 14.3536C13.7598 14.4473 13.6326 14.5 13.5 14.5C13.3674 14.5 13.2402 14.4473 13.1464 14.3536C13.0527 14.2598 13 14.1326 13 14Z" fill="#181D27"/>
    </symbol>
</svg>