<svg width="16" height="16" viewBox="0 0 16 16" fill="none" xmlns="http://www.w3.org/2000/svg">
<path d="M8 15C6.14348 15 4.36301 14.2625 3.05025 12.9497C1.7375 11.637 1 9.85652 1 8C1 6.14348 1.7375 4.36301 3.05025 3.05025C4.36301 1.7375 6.14348 1 8 1C9.85652 1 11.637 1.7375 12.9497 3.05025C14.2625 4.36301 15 6.14348 15 8C15 9.85652 14.2625 11.637 12.9497 12.9497C11.637 14.2625 9.85652 15 8 15ZM8 14C8.78793 14 9.56815 13.8448 10.2961 13.5433C11.0241 13.2417 11.6855 12.7998 12.2426 12.2426C12.7998 11.6855 13.2417 11.0241 13.5433 10.2961C13.8448 9.56815 14 8.78793 14 8C14 7.21207 13.8448 6.43185 13.5433 5.7039C13.2417 4.97595 12.7998 4.31451 12.2426 3.75736C11.6855 3.20021 11.0241 2.75825 10.2961 2.45672C9.56815 2.15519 8.78793 2 8 2C6.4087 2 4.88258 2.63214 3.75736 3.75736C2.63214 4.88258 2 6.4087 2 8C2 9.5913 2.63214 11.1174 3.75736 12.2426C4.88258 13.3679 6.4087 14 8 14Z" fill="#181D27"/>
<path d="M2.91901 4.19208C3.16901 3.93608 3.41301 3.69608 3.65301 3.47208C3.92601 3.95108 4.27501 4.38008 4.68401 4.74208L4.17601 5.62408C3.68378 5.21636 3.25949 4.733 2.91901 4.19208ZM13.133 4.10908C12.7842 4.6835 12.3417 5.19555 11.824 5.62408L11.316 4.74308C11.7465 4.36074 12.1084 3.90753 12.386 3.40308C12.629 3.62308 12.878 3.85808 13.133 4.10908ZM7.28101 6.95708L7.45501 5.97108C7.81729 6.01035 8.18274 6.01035 8.54501 5.97108L8.71901 6.95708C8.24138 7.01413 7.75865 7.01413 7.28101 6.95708ZM6.30101 6.75708C5.8466 6.62242 5.40986 6.43409 5.00001 6.19608L5.50001 5.33008C5.80896 5.50883 6.13616 5.65399 6.47601 5.76308L6.30101 6.75508V6.75708ZM11.001 6.19708C10.5908 6.43482 10.1537 6.62281 9.69901 6.75708L9.52401 5.76408C9.86387 5.65499 10.1911 5.50983 10.5 5.33108L11 6.19708H11.001ZM2.86401 11.8971C3.21332 11.3206 3.6568 10.8069 4.17601 10.3771L4.68401 11.2571C4.26401 11.6311 3.90501 12.0751 3.62901 12.5701C3.37901 12.3601 3.12401 12.1371 2.86401 11.8971ZM13.138 11.8991C12.8878 12.1292 12.6324 12.3535 12.372 12.5721C12.0967 12.0773 11.7396 11.6327 11.316 11.2571L11.824 10.3771C12.343 10.8061 12.788 11.3201 13.138 11.8991ZM7.28001 9.04308C7.75765 8.98603 8.24038 8.98603 8.71801 9.04308L8.54401 10.0291C8.18174 9.9898 7.81629 9.9898 7.45401 10.0291L7.28001 9.04308ZM6.30001 9.24308L6.47501 10.2361C6.13516 10.3452 5.80796 10.4903 5.49901 10.6691L5.00001 9.80308C5.4099 9.56541 5.84665 9.37742 6.30101 9.24308H6.30001ZM11 9.80308L10.5 10.6691C10.1908 10.4901 9.86329 10.3449 9.52301 10.2361L9.69801 9.24408C10.158 9.37908 10.593 9.56808 10.999 9.80308H11Z" fill="#181D27"/>
</svg>
