<svg width="13" height="14" viewBox="0 0 13 14" fill="none" xmlns="http://www.w3.org/2000/svg">
<path d="M4.52269 5.52273C4.42906 5.61648 4.37646 5.74356 4.37646 5.87606C4.37646 6.00856 4.42906 6.13565 4.52269 6.2294L5.95936 7.66673L4.52269 9.1034C4.43437 9.19818 4.38629 9.32354 4.38857 9.45308C4.39086 9.58261 4.44334 9.7062 4.53494 9.79781C4.62655 9.88942 4.75014 9.94189 4.87968 9.94418C5.00921 9.94647 5.13457 9.89838 5.22936 9.81006L6.66669 8.37473L8.10336 9.8114C8.19814 9.89972 8.32351 9.9478 8.45304 9.94551C8.58257 9.94323 8.70616 9.89075 8.79777 9.79914C8.88938 9.70754 8.94186 9.58395 8.94414 9.45441C8.94643 9.32488 8.89834 9.19951 8.81003 9.10473L7.37336 7.66673L8.81003 6.23006C8.85915 6.18429 8.89855 6.12909 8.92588 6.06775C8.95321 6.00642 8.9679 5.94021 8.96909 5.87308C8.97027 5.80594 8.95792 5.73926 8.93277 5.677C8.90763 5.61474 8.8702 5.55818 8.82272 5.5107C8.77524 5.46323 8.71868 5.4258 8.65642 5.40065C8.59416 5.3755 8.52748 5.36315 8.46034 5.36434C8.39321 5.36552 8.327 5.38021 8.26567 5.40754C8.20433 5.43487 8.14913 5.47427 8.10336 5.5234L6.66669 6.95873L5.22869 5.52273C5.13494 5.4291 5.00786 5.3765 4.87536 5.3765C4.74286 5.3765 4.61578 5.4291 4.52202 5.52273" fill="#535862"/>
<path fill-rule="evenodd" clip-rule="evenodd" d="M6.5 1C2.91005 1 0 3.91005 0 7.5C0 11.0899 2.91005 14 6.5 14C10.0899 14 13 11.0899 13 7.5C13 3.91005 10.0899 1 6.5 1ZM0.975 7.5C0.975 6.03468 1.5571 4.62937 2.59324 3.59324C3.62937 2.5571 5.03468 1.975 6.5 1.975C7.96532 1.975 9.37063 2.5571 10.4068 3.59324C11.4429 4.62937 12.025 6.03468 12.025 7.5C12.025 8.96532 11.4429 10.3706 10.4068 11.4068C9.37063 12.4429 7.96532 13.025 6.5 13.025C5.03468 13.025 3.62937 12.4429 2.59324 11.4068C1.5571 10.3706 0.975 8.96532 0.975 7.5Z" fill="#535862"/>
</svg>
