<svg width="16" height="16" viewBox="0 0 16 16" fill="none" xmlns="http://www.w3.org/2000/svg">
<path d="M6.02269 6.02273C5.92906 6.11648 5.87646 6.24356 5.87646 6.37606C5.87646 6.50856 5.92906 6.63565 6.02269 6.7294L7.45936 8.16673L6.02269 9.6034C5.93437 9.69818 5.88629 9.82354 5.88857 9.95308C5.89086 10.0826 5.94334 10.2062 6.03494 10.2978C6.12655 10.3894 6.25014 10.4419 6.37968 10.4442C6.50921 10.4465 6.63457 10.3984 6.72936 10.3101L8.16669 8.87473L9.60336 10.3114C9.69814 10.3997 9.82351 10.4478 9.95304 10.4455C10.0826 10.4432 10.2062 10.3908 10.2978 10.2991C10.3894 10.2075 10.4419 10.0839 10.4441 9.95441C10.4464 9.82488 10.3983 9.69951 10.31 9.60473L8.87336 8.16673L10.31 6.73006C10.3591 6.68429 10.3986 6.62909 10.4259 6.56776C10.4532 6.50642 10.4679 6.44021 10.4691 6.37308C10.4703 6.30594 10.4579 6.23926 10.4328 6.177C10.4076 6.11474 10.3702 6.05818 10.3227 6.0107C10.2752 5.96323 10.2187 5.9258 10.1564 5.90065C10.0942 5.8755 10.0275 5.86315 9.96034 5.86434C9.89321 5.86552 9.827 5.88021 9.76567 5.90754C9.70433 5.93487 9.64913 5.97427 9.60336 6.0234L8.16669 7.45873L6.72869 6.02273C6.63494 5.9291 6.50786 5.8765 6.37536 5.8765C6.24286 5.8765 6.11578 5.9291 6.02202 6.02273" fill="#535862"/>
<path fill-rule="evenodd" clip-rule="evenodd" d="M8 1.5C4.41005 1.5 1.5 4.41005 1.5 8C1.5 11.5899 4.41005 14.5 8 14.5C11.5899 14.5 14.5 11.5899 14.5 8C14.5 4.41005 11.5899 1.5 8 1.5ZM2.475 8C2.475 6.53468 3.0571 5.12937 4.09324 4.09324C5.12937 3.0571 6.53468 2.475 8 2.475C9.46532 2.475 10.8706 3.0571 11.9068 4.09324C12.9429 5.12937 13.525 6.53468 13.525 8C13.525 9.46532 12.9429 10.8706 11.9068 11.9068C10.8706 12.9429 9.46532 13.525 8 13.525C6.53468 13.525 5.12937 12.9429 4.09324 11.9068C3.0571 10.8706 2.475 9.46532 2.475 8Z" fill="#535862"/>
</svg>
