<svg width="16" height="16" viewBox="0 0 16 16" fill="none" xmlns="http://www.w3.org/2000/svg">
<path d="M13.5533 2.44672C13.4271 2.3215 13.2689 2.23347 13.0961 2.1923C12.9232 2.15114 12.7423 2.15843 12.5733 2.21339L2.81992 5.46672C2.63903 5.52404 2.47919 5.63367 2.36058 5.78178C2.24197 5.92989 2.16991 6.10983 2.1535 6.29887C2.13709 6.48791 2.17707 6.67757 2.26839 6.8439C2.35972 7.01023 2.49828 7.14576 2.66659 7.23339L6.71325 9.23339L8.71325 13.2934C8.79364 13.4523 8.91665 13.5857 9.06853 13.6787C9.22041 13.7717 9.39516 13.8207 9.57325 13.8201H9.63992C9.83065 13.806 10.0127 13.7349 10.1625 13.616C10.3123 13.4971 10.4229 13.3359 10.4799 13.1534L13.7799 3.42672C13.8388 3.25867 13.8488 3.07735 13.8087 2.90385C13.7686 2.73035 13.68 2.57182 13.5533 2.44672ZM3.23325 6.38672L11.7466 3.54672L7.01992 8.27339L3.23325 6.38672ZM9.61992 12.7667L7.72659 8.98005L12.4533 4.25339L9.61992 12.7667Z" fill="#717680"/>
</svg>
