<svg width="16" height="16" viewBox="0 0 16 16" fill="none" xmlns="http://www.w3.org/2000/svg">
<path d="M7.46375 13.1996C7.79102 12.9917 8.20898 12.9917 8.53625 13.1996L10.91 14.7078C11.6615 15.1852 12.6152 14.5165 12.4226 13.6473L11.7573 10.6452C11.6798 10.2956 11.7952 9.93122 12.0598 9.68992L14.3193 7.62946C14.9624 7.04304 14.6013 5.97193 13.7344 5.89452L10.858 5.63763C10.4836 5.6042 10.1596 5.36372 10.0193 5.01509L8.92763 2.30387C8.59129 1.46854 7.40871 1.46854 7.07237 2.30387L5.98072 5.01509C5.84036 5.36372 5.51638 5.6042 5.14205 5.63763L2.26555 5.89452C1.39869 5.97193 1.03762 7.04304 1.6807 7.62946L3.94023 9.68992C4.20484 9.93121 4.32022 10.2956 4.24274 10.6452L3.5774 13.6473C3.38477 14.5165 4.33852 15.1852 5.08996 14.7078L7.46375 13.1996Z" fill="#FFDC22"/>
</svg>
