<svg width="26" height="24" viewBox="0 0 26 24" fill="none" xmlns="http://www.w3.org/2000/svg">
<g clip-path="url(#clip0_631_9425)">
<g clip-path="url(#clip1_631_9425)">
<path d="M12.4833 19.2359C12.8011 19.044 13.1989 19.0441 13.5167 19.2359L18.387 22.1754C19.1443 22.6324 20.0785 21.9535 19.8776 21.092L18.5851 15.5518C18.5008 15.1903 18.6236 14.8118 18.9042 14.5688L23.2086 10.8399C23.8772 10.2607 23.5198 9.16239 22.6384 9.08761L16.9729 8.60695C16.6033 8.5756 16.2814 8.34226 16.1367 8.00076L13.9207 2.77234C13.5761 1.95932 12.4239 1.95932 12.0793 2.77235L9.86332 8.00076C9.71858 8.34226 9.39671 8.5756 9.02714 8.60695L3.36163 9.08761C2.48021 9.16239 2.1228 10.2607 2.79139 10.8399L7.0958 14.5688C7.37636 14.8118 7.49921 15.1903 7.41487 15.5518L6.12241 21.092C5.92145 21.9535 6.85568 22.6324 7.613 22.1754L12.4833 19.2359Z" fill="#FFDC22"/>
</g>
</g>
<defs>
<clipPath id="clip0_631_9425">
<rect width="26" height="22.8" fill="white" transform="translate(0 0.599976)"/>
</clipPath>
<clipPath id="clip1_631_9425">
<rect width="24" height="22.8" fill="white" transform="translate(1 0.599976)"/>
</clipPath>
</defs>
</svg>
