<svg width="24" height="23" viewBox="0 0 24 23" fill="none" xmlns="http://www.w3.org/2000/svg">
<g clip-path="url(#clip0_596_27988)">
<path d="M12.5167 18.6359L13.0335 17.7797C12.3979 17.3961 11.6021 17.3961 10.9665 17.7797L6.09627 20.7192L7.38873 15.179C7.55739 14.456 7.3117 13.6991 6.75057 13.213L2.44617 9.48406L8.11167 9.0034C8.85083 8.94069 9.49456 8.47401 9.78404 7.79101L12 2.5626L14.216 7.79101C14.5054 8.47402 15.1492 8.94069 15.8883 9.0034L21.5538 9.48406L17.2494 13.213C16.6883 13.6991 16.4426 14.456 16.6113 15.179L17.9037 20.7192L13.0335 17.7797L12.5167 18.6359Z" stroke="#FFDC22" stroke-width="2"/>
</g>
<defs>
<clipPath id="clip0_596_27988">
<rect width="24" height="22.8" fill="white"/>
</clipPath>
</defs>
</svg>
