<svg width="16" height="16" viewBox="0 0 16 16" fill="none" xmlns="http://www.w3.org/2000/svg">
<g clip-path="url(#clip0_727_14645)">
<path d="M11.1782 14.2857L8.80438 12.7776C8.31347 12.4657 7.68653 12.4657 7.19562 12.7776L4.82184 14.2857C4.44612 14.5244 3.96924 14.1901 4.06556 13.7555L4.7309 10.7534C4.84712 10.229 4.67405 9.68241 4.27714 9.32047L2.0176 7.26001C1.69606 6.9668 1.8766 6.43124 2.31003 6.39253L5.18652 6.13565C5.74802 6.0855 6.23399 5.72478 6.44454 5.20185L7.53619 2.49062C7.70435 2.07295 8.29565 2.07296 8.46381 2.49062L9.55546 5.20184C9.76601 5.72478 10.252 6.0855 10.8135 6.13565L13.69 6.39253C14.1234 6.43124 14.3039 6.9668 13.9824 7.26001L11.7229 9.32047C11.326 9.68241 11.1529 10.229 11.2691 10.7534L11.9344 13.7555C12.0308 14.1901 11.5539 14.5244 11.1782 14.2857Z" stroke="#FFDC22"/>
</g>
<defs>
<clipPath id="clip0_727_14645">
<rect width="16" height="16" fill="white"/>
</clipPath>
</defs>
</svg>
