<svg width="0" height="0" fill="none" style="visibility: hidden; position: absolute;" aria-hidden="true">
    <symbol id="back-arrow" width="16" height="16" viewBox="0 0 16 16" fill="none" xmlns="http://www.w3.org/2000/svg">
        <g clip-path="url(#clip0_727_11802__back-arrow)">
            <path d="M15 8H1M1 8L8 15M1 8L8 1" stroke="#181D27" stroke-width="2" stroke-linecap="round" stroke-linejoin="round"/>
        </g>
        <defs>
            <clipPath id="clip0_727_11802__back-arrow">
                <rect width="16" height="16" fill="white"/>
            </clipPath>
        </defs>
    </symbol>
    <symbol id="ball" width="16" height="16" viewBox="0 0 16 16" fill="none" xmlns="http://www.w3.org/2000/svg">
        <path d="M8 15C6.14348 15 4.36301 14.2625 3.05025 12.9497C1.7375 11.637 1 9.85652 1 8C1 6.14348 1.7375 4.36301 3.05025 3.05025C4.36301 1.7375 6.14348 1 8 1C9.85652 1 11.637 1.7375 12.9497 3.05025C14.2625 4.36301 15 6.14348 15 8C15 9.85652 14.2625 11.637 12.9497 12.9497C11.637 14.2625 9.85652 15 8 15ZM8 14C8.78793 14 9.56815 13.8448 10.2961 13.5433C11.0241 13.2417 11.6855 12.7998 12.2426 12.2426C12.7998 11.6855 13.2417 11.0241 13.5433 10.2961C13.8448 9.56815 14 8.78793 14 8C14 7.21207 13.8448 6.43185 13.5433 5.7039C13.2417 4.97595 12.7998 4.31451 12.2426 3.75736C11.6855 3.20021 11.0241 2.75825 10.2961 2.45672C9.56815 2.15519 8.78793 2 8 2C6.4087 2 4.88258 2.63214 3.75736 3.75736C2.63214 4.88258 2 6.4087 2 8C2 9.5913 2.63214 11.1174 3.75736 12.2426C4.88258 13.3679 6.4087 14 8 14Z" fill="#181D27"/>
        <path d="M2.91901 4.19183C3.16901 3.93583 3.41301 3.69583 3.65301 3.47183C3.92601 3.95083 4.27501 4.37983 4.68401 4.74183L4.17601 5.62383C3.68378 5.21612 3.25949 4.73275 2.91901 4.19183ZM13.133 4.10883C12.7842 4.68325 12.3417 5.19531 11.824 5.62383L11.316 4.74283C11.7465 4.36049 12.1084 3.90728 12.386 3.40283C12.629 3.62283 12.878 3.85783 13.133 4.10883ZM7.28101 6.95683L7.45501 5.97083C7.81729 6.01011 8.18274 6.01011 8.54501 5.97083L8.71901 6.95683C8.24138 7.01388 7.75865 7.01388 7.28101 6.95683ZM6.30101 6.75683C5.8466 6.62218 5.40986 6.43385 5.00001 6.19583L5.50001 5.32983C5.80896 5.50859 6.13616 5.65375 6.47601 5.76283L6.30101 6.75483V6.75683ZM11.001 6.19683C10.5908 6.43457 10.1537 6.62257 9.69901 6.75683L9.52401 5.76383C9.86387 5.65475 10.1911 5.50959 10.5 5.33083L11 6.19683H11.001ZM2.86401 11.8968C3.21332 11.3204 3.6568 10.8066 4.17601 10.3768L4.68401 11.2568C4.26401 11.6308 3.90501 12.0748 3.62901 12.5698C3.37901 12.3598 3.12401 12.1368 2.86401 11.8968ZM13.138 11.8988C12.8878 12.1289 12.6324 12.3533 12.372 12.5718C12.0967 12.0771 11.7396 11.6325 11.316 11.2568L11.824 10.3768C12.343 10.8058 12.788 11.3198 13.138 11.8988ZM7.28001 9.04283C7.75765 8.98578 8.24038 8.98578 8.71801 9.04283L8.54401 10.0288C8.18174 9.98956 7.81629 9.98956 7.45401 10.0288L7.28001 9.04283ZM6.30001 9.24283L6.47501 10.2358C6.13516 10.3449 5.80796 10.4901 5.49901 10.6688L5.00001 9.80283C5.4099 9.56516 5.84665 9.37717 6.30101 9.24283H6.30001ZM11 9.80283L10.5 10.6688C10.1908 10.4898 9.86329 10.3447 9.52301 10.2358L9.69801 9.24383C10.158 9.37883 10.593 9.56783 10.999 9.80283H11Z" fill="#181D27"/>
    </symbol>
    <symbol id="button-search" width="16" height="16" viewBox="0 0 16 16" fill="none" xmlns="http://www.w3.org/2000/svg">
        <path d="M14.4545 15.7496L9.36364 10.6515C8.90909 11.0156 8.38636 11.3039 7.79545 11.5164C7.20455 11.7288 6.57576 11.835 5.90909 11.835C4.25758 11.835 2.86 11.2624 1.71636 10.1171C0.572121 8.97123 0 7.57136 0 5.9175C0 4.26363 0.572121 2.86376 1.71636 1.71789C2.86 0.572632 4.25758 0 5.90909 0C7.56061 0 8.95849 0.572632 10.1027 1.71789C11.2464 2.86376 11.8182 4.26363 11.8182 5.9175C11.8182 6.58511 11.7121 7.21479 11.5 7.80654C11.2879 8.39829 11 8.92176 10.6364 9.37696L15.75 14.4979C15.9167 14.6648 16 14.8696 16 15.1124C16 15.3551 15.9091 15.5676 15.7273 15.7496C15.5606 15.9165 15.3485 16 15.0909 16C14.8333 16 14.6212 15.9165 14.4545 15.7496ZM5.90909 10.0142C7.04545 10.0142 8.01152 9.61608 8.80727 8.8198C9.60242 8.02291 10 7.05548 10 5.9175C10 4.77952 9.60242 3.81208 8.80727 3.01519C8.01152 2.21891 7.04545 1.82077 5.90909 1.82077C4.77273 1.82077 3.80667 2.21891 3.01091 3.01519C2.21576 3.81208 1.81818 4.77952 1.81818 5.9175C1.81818 7.05548 2.21576 8.02291 3.01091 8.8198C3.80667 9.61608 4.77273 10.0142 5.90909 10.0142Z" fill="white"/>
    </symbol>
    <symbol id="calendar" width="16" height="16" viewBox="0 0 16 16" fill="none" xmlns="http://www.w3.org/2000/svg">
        <path d="M2 6V14H14V3H12V3.5C12 3.63261 11.9473 3.75979 11.8536 3.85355C11.7598 3.94732 11.6326 4 11.5 4C11.3674 4 11.2402 3.94732 11.1464 3.85355C11.0527 3.75979 11 3.63261 11 3.5V3H5V3.5C5 3.63261 4.94732 3.75979 4.85355 3.85355C4.75979 3.94732 4.63261 4 4.5 4C4.36739 4 4.24021 3.94732 4.14645 3.85355C4.05268 3.75979 4 3.63261 4 3.5V3H2V5H14V6H2ZM5 2H11V1.5C11 1.36739 11.0527 1.24021 11.1464 1.14645C11.2402 1.05268 11.3674 1 11.5 1C11.6326 1 11.7598 1.05268 11.8536 1.14645C11.9473 1.24021 12 1.36739 12 1.5V2H14.5C14.6326 2 14.7598 2.05268 14.8536 2.14645C14.9473 2.24021 15 2.36739 15 2.5V14.5C15 14.6326 14.9473 14.7598 14.8536 14.8536C14.7598 14.9473 14.6326 15 14.5 15H1.5C1.36739 15 1.24021 14.9473 1.14645 14.8536C1.05268 14.7598 1 14.6326 1 14.5V2.5C1 2.36739 1.05268 2.24021 1.14645 2.14645C1.24021 2.05268 1.36739 2 1.5 2H4V1.5C4 1.36739 4.05268 1.24021 4.14645 1.14645C4.24021 1.05268 4.36739 1 4.5 1C4.63261 1 4.75979 1.05268 4.85355 1.14645C4.94732 1.24021 5 1.36739 5 1.5V2ZM4.5 8H5.5C5.63261 8 5.75979 8.05268 5.85355 8.14645C5.94732 8.24021 6 8.36739 6 8.5C6 8.63261 5.94732 8.75979 5.85355 8.85355C5.75979 8.94732 5.63261 9 5.5 9H4.5C4.36739 9 4.24021 8.94732 4.14645 8.85355C4.05268 8.75979 4 8.63261 4 8.5C4 8.36739 4.05268 8.24021 4.14645 8.14645C4.24021 8.05268 4.36739 8 4.5 8ZM4.5 11H5.5C5.63261 11 5.75979 11.0527 5.85355 11.1464C5.94732 11.2402 6 11.3674 6 11.5C6 11.6326 5.94732 11.7598 5.85355 11.8536C5.75979 11.9473 5.63261 12 5.5 12H4.5C4.36739 12 4.24021 11.9473 4.14645 11.8536C4.05268 11.7598 4 11.6326 4 11.5C4 11.3674 4.05268 11.2402 4.14645 11.1464C4.24021 11.0527 4.36739 11 4.5 11ZM7.5 8H8.5C8.63261 8 8.75979 8.05268 8.85355 8.14645C8.94732 8.24021 9 8.36739 9 8.5C9 8.63261 8.94732 8.75979 8.85355 8.85355C8.75979 8.94732 8.63261 9 8.5 9H7.5C7.36739 9 7.24021 8.94732 7.14645 8.85355C7.05268 8.75979 7 8.63261 7 8.5C7 8.36739 7.05268 8.24021 7.14645 8.14645C7.24021 8.05268 7.36739 8 7.5 8ZM7.5 11H8.5C8.63261 11 8.75979 11.0527 8.85355 11.1464C8.94732 11.2402 9 11.3674 9 11.5C9 11.6326 8.94732 11.7598 8.85355 11.8536C8.75979 11.9473 8.63261 12 8.5 12H7.5C7.36739 12 7.24021 11.9473 7.14645 11.8536C7.05268 11.7598 7 11.6326 7 11.5C7 11.3674 7.05268 11.2402 7.14645 11.1464C7.24021 11.0527 7.36739 11 7.5 11ZM10.5 8H11.5C11.6326 8 11.7598 8.05268 11.8536 8.14645C11.9473 8.24021 12 8.36739 12 8.5C12 8.63261 11.9473 8.75979 11.8536 8.85355C11.7598 8.94732 11.6326 9 11.5 9H10.5C10.3674 9 10.2402 8.94732 10.1464 8.85355C10.0527 8.75979 10 8.63261 10 8.5C10 8.36739 10.0527 8.24021 10.1464 8.14645C10.2402 8.05268 10.3674 8 10.5 8ZM10.5 11H11.5C11.6326 11 11.7598 11.0527 11.8536 11.1464C11.9473 11.2402 12 11.3674 12 11.5C12 11.6326 11.9473 11.7598 11.8536 11.8536C11.7598 11.9473 11.6326 12 11.5 12H10.5C10.3674 12 10.2402 11.9473 10.1464 11.8536C10.0527 11.7598 10 11.6326 10 11.5C10 11.3674 10.0527 11.2402 10.1464 11.1464C10.2402 11.0527 10.3674 11 10.5 11Z" fill="#181D27"/>
    </symbol>
    <symbol id="cancle-circle" width="16" height="16" viewBox="0 0 16 16" fill="none" xmlns="http://www.w3.org/2000/svg">
        <path d="M6.02269 6.02273C5.92906 6.11648 5.87646 6.24356 5.87646 6.37606C5.87646 6.50856 5.92906 6.63565 6.02269 6.7294L7.45936 8.16673L6.02269 9.6034C5.93437 9.69818 5.88629 9.82354 5.88857 9.95308C5.89086 10.0826 5.94334 10.2062 6.03494 10.2978C6.12655 10.3894 6.25014 10.4419 6.37968 10.4442C6.50921 10.4465 6.63457 10.3984 6.72936 10.3101L8.16669 8.87473L9.60336 10.3114C9.69814 10.3997 9.82351 10.4478 9.95304 10.4455C10.0826 10.4432 10.2062 10.3908 10.2978 10.2991C10.3894 10.2075 10.4419 10.0839 10.4441 9.95441C10.4464 9.82488 10.3983 9.69951 10.31 9.60473L8.87336 8.16673L10.31 6.73006C10.3591 6.68429 10.3986 6.62909 10.4259 6.56776C10.4532 6.50642 10.4679 6.44021 10.4691 6.37308C10.4703 6.30594 10.4579 6.23926 10.4328 6.177C10.4076 6.11474 10.3702 6.05818 10.3227 6.0107C10.2752 5.96323 10.2187 5.9258 10.1564 5.90065C10.0942 5.8755 10.0275 5.86315 9.96034 5.86434C9.89321 5.86552 9.827 5.88021 9.76567 5.90754C9.70433 5.93487 9.64913 5.97427 9.60336 6.0234L8.16669 7.45873L6.72869 6.02273C6.63494 5.9291 6.50786 5.8765 6.37536 5.8765C6.24286 5.8765 6.11578 5.9291 6.02202 6.02273" fill="#535862"/>
        <path fill-rule="evenodd" clip-rule="evenodd" d="M8 1.5C4.41005 1.5 1.5 4.41005 1.5 8C1.5 11.5899 4.41005 14.5 8 14.5C11.5899 14.5 14.5 11.5899 14.5 8C14.5 4.41005 11.5899 1.5 8 1.5ZM2.475 8C2.475 6.53468 3.0571 5.12937 4.09324 4.09324C5.12937 3.0571 6.53468 2.475 8 2.475C9.46532 2.475 10.8706 3.0571 11.9068 4.09324C12.9429 5.12937 13.525 6.53468 13.525 8C13.525 9.46532 12.9429 10.8706 11.9068 11.9068C10.8706 12.9429 9.46532 13.525 8 13.525C6.53468 13.525 5.12937 12.9429 4.09324 11.9068C3.0571 10.8706 2.475 9.46532 2.475 8Z" fill="#535862"/>
    </symbol>
    <symbol id="caution" width="16" height="16" viewBox="0 0 16 16" fill="none" xmlns="http://www.w3.org/2000/svg">
        <path d="M14.1176 7.99997C14.1176 11.3787 11.3787 14.1176 7.99997 14.1176C4.62129 14.1176 1.88232 11.3787 1.88232 7.99997C1.88232 4.62129 4.62129 1.88232 7.99997 1.88232C11.3787 1.88232 14.1176 4.62129 14.1176 7.99997Z" fill="#FFEAD5"/>
        <path fill-rule="evenodd" clip-rule="evenodd" d="M16 8C16 12.4183 12.4183 16 8 16C3.58172 16 0 12.4183 0 8C0 3.58172 3.58172 0 8 0C12.4183 0 16 3.58172 16 8ZM8 13.7143C11.1559 13.7143 13.7143 11.1559 13.7143 8C13.7143 4.84409 11.1559 2.28571 8 2.28571C4.84409 2.28571 2.28571 4.84409 2.28571 8C2.28571 11.1559 4.84409 13.7143 8 13.7143Z" fill="#FFF6ED"/>
        <g clip-path="url(#clip0_922_11867__caution)">
            <path fill-rule="evenodd" clip-rule="evenodd" d="M7.59575 5.05807C7.71908 4.98863 7.85823 4.95215 7.99977 4.95215C8.14131 4.95215 8.28046 4.98863 8.40379 5.05807C8.52713 5.1275 8.63048 5.22756 8.70389 5.34857L8.70468 5.34988L11.0298 9.23145L11.032 9.23524C11.1039 9.35977 11.142 9.50095 11.1424 9.64475C11.1428 9.78854 11.1055 9.92994 11.0343 10.0549C10.9631 10.1798 10.8604 10.2839 10.7365 10.3568C10.6125 10.4297 10.4717 10.469 10.3279 10.4705L10.3249 10.4706L5.67166 10.4705C5.52787 10.469 5.387 10.4297 5.26307 10.3568C5.13913 10.2839 5.03645 10.1798 4.96524 10.0549C4.89403 9.92994 4.85678 9.78854 4.85718 9.64475C4.85758 9.50095 4.89563 9.35977 4.96754 9.23524L4.96977 9.23145L7.29565 5.34857C7.36906 5.22756 7.47242 5.1275 7.59575 5.05807ZM7.99977 5.50117C7.95259 5.50117 7.90621 5.51333 7.8651 5.53647C7.82417 5.55952 7.78985 5.59267 7.7654 5.63276L5.44208 9.51136C5.4187 9.55249 5.40633 9.59896 5.4062 9.64628C5.40606 9.69422 5.41848 9.74135 5.44222 9.78299C5.46596 9.82463 5.50018 9.85933 5.54149 9.88364C5.58244 9.90774 5.62894 9.92079 5.67643 9.92153H10.3231C10.3706 9.92079 10.4171 9.90774 10.458 9.88364C10.4994 9.85933 10.5336 9.82463 10.5573 9.78299C10.5811 9.74135 10.5935 9.69422 10.5933 9.64628C10.5932 9.59897 10.5808 9.5525 10.5575 9.51138L8.23448 5.63331C8.23437 5.63313 8.23426 5.63295 8.23414 5.63276C8.2097 5.59267 8.17537 5.55952 8.13444 5.53647C8.09333 5.51333 8.04695 5.50117 7.99977 5.50117ZM7.99977 6.62741C8.15138 6.62741 8.27428 6.75031 8.27428 6.90192V7.99996C8.27428 8.15157 8.15138 8.27447 7.99977 8.27447C7.84816 8.27447 7.72526 8.15157 7.72526 7.99996V6.90192C7.72526 6.75031 7.84816 6.62741 7.99977 6.62741ZM7.72526 9.098C7.72526 8.94639 7.84816 8.82349 7.99977 8.82349H8.00252C8.15412 8.82349 8.27703 8.94639 8.27703 9.098C8.27703 9.24961 8.15412 9.37251 8.00252 9.37251H7.99977C7.84816 9.37251 7.72526 9.24961 7.72526 9.098Z" fill="#EC4A0A"/>
        </g>
        <defs>
            <clipPath id="clip0_922_11867__caution">
                <rect width="6.58824" height="6.58824" fill="white" transform="translate(4.70581 4.70605)"/>
            </clipPath>
        </defs>
    </symbol>
    <symbol id="checkbox-checked" width="16" height="16" viewBox="0 0 16 16" fill="none" xmlns="http://www.w3.org/2000/svg">
        <rect width="16" height="16" rx="2" fill="#175CD3"/>
        <path d="M11.765 5.20474C12.0661 5.48915 12.0797 5.96383 11.7953 6.26497L7.54526 10.765C7.40613 10.9123 7.21332 10.997 7.01071 10.9999C6.8081 11.0028 6.61295 10.9236 6.46967 10.7803L4.21967 8.53033C3.92678 8.23744 3.92678 7.76257 4.21967 7.46967C4.51256 7.17678 4.98744 7.17678 5.28033 7.46967L6.98463 9.17397L10.7047 5.23503C10.9891 4.9339 11.4638 4.92033 11.765 5.20474Z" fill="#FDFDFD"/>
    </symbol>
    <symbol id="checkbox-default" width="16" height="16" viewBox="0 0 16 16" fill="none" xmlns="http://www.w3.org/2000/svg">
        <rect x="0.5" y="0.5" width="15" height="15" rx="1.5" stroke="#175CD3"/>
    </symbol>
    <symbol id="circle-close-red" xmlns="http://www.w3.org/2000/svg" width="16" height="16" viewBox="0 0 16 16" fill="none">
        <path d="M7.29288 7.99996L5.87888 6.58596C5.7878 6.49166 5.73741 6.36536 5.73854 6.23426C5.73968 6.10316 5.79227 5.97776 5.88497 5.88505C5.97768 5.79235 6.10308 5.73977 6.23418 5.73863C6.36528 5.73749 6.49158 5.78788 6.58588 5.87896L7.99988 7.29296L9.41388 5.87896C9.46 5.83121 9.51518 5.79312 9.57618 5.76691C9.63718 5.74071 9.70279 5.72691 9.76918 5.72634C9.83557 5.72576 9.90141 5.73841 9.96286 5.76355C10.0243 5.78869 10.0801 5.82582 10.1271 5.87277C10.174 5.91971 10.2112 5.97554 10.2363 6.03699C10.2614 6.09843 10.2741 6.16427 10.2735 6.23066C10.2729 6.29705 10.2591 6.36266 10.2329 6.42366C10.2067 6.48467 10.1686 6.53984 10.1209 6.58596L8.70688 7.99996L10.1209 9.41396C10.1686 9.46009 10.2067 9.51526 10.2329 9.57626C10.2591 9.63726 10.2729 9.70287 10.2735 9.76926C10.2741 9.83565 10.2614 9.90149 10.2363 9.96294C10.2112 10.0244 10.174 10.0802 10.1271 10.1272C10.0801 10.1741 10.0243 10.2112 9.96286 10.2364C9.90141 10.2615 9.83557 10.2742 9.76918 10.2736C9.70279 10.273 9.63718 10.2592 9.57618 10.233C9.51518 10.2068 9.46 10.1687 9.41388 10.121L7.99988 8.70696L6.58588 10.121C6.49158 10.212 6.36528 10.2624 6.23418 10.2613C6.10308 10.2602 5.97768 10.2076 5.88497 10.1149C5.79227 10.0222 5.73968 9.89676 5.73854 9.76566C5.73741 9.63456 5.7878 9.50826 5.87888 9.41396L7.29288 7.99996Z" fill="#F04438"/>
        <path d="M8 14C8.78793 14 9.56815 13.8448 10.2961 13.5433C11.0241 13.2417 11.6855 12.7998 12.2426 12.2426C12.7998 11.6855 13.2417 11.0241 13.5433 10.2961C13.8448 9.56815 14 8.78793 14 8C14 7.21207 13.8448 6.43185 13.5433 5.7039C13.2417 4.97595 12.7998 4.31451 12.2426 3.75736C11.6855 3.20021 11.0241 2.75825 10.2961 2.45672C9.56815 2.15519 8.78793 2 8 2C6.4087 2 4.88258 2.63214 3.75736 3.75736C2.63214 4.88258 2 6.4087 2 8C2 9.5913 2.63214 11.1174 3.75736 12.2426C4.88258 13.3679 6.4087 14 8 14ZM8 15C6.14348 15 4.36301 14.2625 3.05025 12.9497C1.7375 11.637 1 9.85652 1 8C1 6.14348 1.7375 4.36301 3.05025 3.05025C4.36301 1.7375 6.14348 1 8 1C9.85652 1 11.637 1.7375 12.9497 3.05025C14.2625 4.36301 15 6.14348 15 8C15 9.85652 14.2625 11.637 12.9497 12.9497C11.637 14.2625 9.85652 15 8 15Z" fill="#F04438"/>
    </symbol>
    <symbol id="document" width="16" height="16" viewBox="0 0 16 16" fill="none" xmlns="http://www.w3.org/2000/svg">
        <path d="M13 6H9V2H3V14H13V6ZM12.586 5L10 2.414V5H12.586ZM2.5 1H10L14 5V14.5C14 14.6326 13.9473 14.7598 13.8536 14.8536C13.7598 14.9473 13.6326 15 13.5 15H2.5C2.36739 15 2.24021 14.9473 2.14645 14.8536C2.05268 14.7598 2 14.6326 2 14.5V1.5C2 1.36739 2.05268 1.24021 2.14645 1.14645C2.24021 1.05268 2.36739 1 2.5 1ZM5 8H11V9H5V8ZM5 5H7.5V6H5V5ZM5 11H11V12H5V11Z" fill="#181D27"/>
    </symbol>
    <symbol id="down" width="16" height="16" viewBox="0 0 16 16" fill="none" xmlns="http://www.w3.org/2000/svg">
        <path fill-rule="evenodd" clip-rule="evenodd" d="M8 8.64112L10.5855 6.05563C10.976 5.66511 11.53 5.58596 11.8229 5.87886C12.1158 6.17175 12.0367 6.72577 11.6462 7.11629L8.81772 9.94472C8.57443 10.188 8.26769 10.3105 8.00015 10.2974C7.73256 10.3106 7.42568 10.1881 7.1823 9.94473L4.35387 7.11631C3.96335 6.72578 3.8842 6.17176 4.17709 5.87887C4.46999 5.58598 5.02401 5.66512 5.41453 6.05565L8 8.64112Z" fill="#181D27"/>
    </symbol>
    <symbol id="edit-user" width="16" height="16" viewBox="0 0 16 16" fill="none" xmlns="http://www.w3.org/2000/svg">
        <path d="M6.5 1.5C4.5725 1.5 3 3.0725 3 5C3 6.205 3.615 7.275 4.547 7.9065C2.7635 8.6715 1.5 10.4415 1.5 12.5H2.5C2.5 10.285 4.285 8.5 6.5 8.5C7.5725 8.5 8.5315 8.9395 9.25 9.625L6.8905 11.9845L6.8595 12.1405L6.5155 13.9065L6.3595 14.6405L7.094 14.4845L8.859 14.1405L9.0155 14.1095L14.0625 9.0625C14.6425 8.4825 14.6425 7.5175 14.0625 6.9375C13.7825 6.6601 13.4051 6.50319 13.0109 6.50029C12.6167 6.49739 12.2371 6.64874 11.953 6.922L9.969 8.9065C9.52825 8.48429 9.01461 8.14548 8.453 7.9065C8.92887 7.58547 9.31874 7.15262 9.58845 6.6459C9.85815 6.13917 9.99947 5.57403 10 5C10 3.0725 8.4275 1.5 6.5 1.5ZM6.5 2.5C7.8865 2.5 9 3.6135 9 5C9 6.3865 7.8865 7.5 6.5 7.5C5.1135 7.5 4 6.3865 4 5C4 3.6135 5.1135 2.5 6.5 2.5ZM13 7.5C13.127 7.5 13.26 7.541 13.3595 7.6405C13.4067 7.68606 13.4443 7.74067 13.4699 7.80106C13.4955 7.86145 13.5088 7.92639 13.5088 7.992C13.5088 8.05761 13.4955 8.12255 13.4699 8.18294C13.4443 8.24333 13.4067 8.29794 13.3595 8.3435L8.5155 13.1875L7.625 13.375L7.8125 12.4845L12.6565 7.6405C12.701 7.59475 12.7545 7.55867 12.8136 7.5345C12.8727 7.51032 12.9362 7.49858 13 7.5Z" fill="black"/>
    </symbol>
    <symbol id="google-icon" width="16" height="16" viewBox="0 0 16 16" fill="none" xmlns="http://www.w3.org/2000/svg">
        <g clip-path="url(#clip0_334_7596__google-icon)">
            <path d="M15.8442 8.18417C15.8442 7.64035 15.8001 7.09359 15.706 6.55859H8.16016V9.63925H12.4813C12.302 10.6328 11.7258 11.5117 10.8822 12.0703V14.0692H13.4602C14.9741 12.6758 15.8442 10.6181 15.8442 8.18417Z" fill="#4285F4"/>
            <path d="M8.15999 16.0007C10.3176 16.0007 12.1372 15.2923 13.4629 14.0694L10.885 12.0705C10.1677 12.5585 9.24174 12.8348 8.16293 12.8348C6.07584 12.8348 4.30623 11.4268 3.67128 9.53369H1.01099V11.5943C2.36906 14.2958 5.13518 16.0007 8.15999 16.0007V16.0007Z" fill="#34A853"/>
            <path d="M3.66852 9.53331C3.33341 8.53974 3.33341 7.46387 3.66852 6.4703V4.40967H1.01116C-0.123511 6.67019 -0.123511 9.33342 1.01116 11.5939L3.66852 9.53331V9.53331Z" fill="#FBBC04"/>
            <path d="M8.15999 3.16644C9.30053 3.1488 10.4029 3.57798 11.2289 4.36578L13.5129 2.08174C12.0667 0.72367 10.1471 -0.0229773 8.15999 0.000539111C5.13518 0.000539111 2.36906 1.70548 1.01099 4.40987L3.66834 6.4705C4.30035 4.57449 6.0729 3.16644 8.15999 3.16644V3.16644Z" fill="#EA4335"/>
        </g>
        <defs>
            <clipPath id="clip0_334_7596__google-icon">
                <rect width="16" height="16" fill="white"/>
            </clipPath>
        </defs>
    </symbol>
    <symbol id="leader" width="16" height="16" viewBox="0 0 16 16" fill="none" xmlns="http://www.w3.org/2000/svg">
        <path d="M2.16667 11.3335L0.5 2.16683L5.08333 6.3335L8 1.3335L10.9167 6.3335L15.5 2.16683L13.8333 11.3335H2.16667ZM13.8333 13.8335C13.8333 14.3335 13.5 14.6668 13 14.6668H3C2.5 14.6668 2.16667 14.3335 2.16667 13.8335V13.0002H13.8333V13.8335Z" fill="#F6D523"/>
    </symbol>
    <symbol id="left" width="16" height="16" viewBox="0 0 16 16" fill="none" xmlns="http://www.w3.org/2000/svg">
        <path d="M4.4368 8.96059L10.2544 13.7583C10.9744 14.3507 12 13.7868 12 12.7984V3.20156C12 2.21323 10.9744 1.64932 10.256 2.24172L4.4368 7.04091C3.8544 7.52083 3.8544 8.48067 4.4368 8.96059Z" fill="black"/>
    </symbol>
    <symbol id="music" width="16" height="16" viewBox="0 0 16 16" fill="none" xmlns="http://www.w3.org/2000/svg">
        <path d="M14 8.268V8C14 7.21207 13.8448 6.43185 13.5433 5.7039C13.2417 4.97595 12.7998 4.31451 12.2426 3.75736C11.6855 3.20021 11.0241 2.75825 10.2961 2.45672C9.56815 2.15519 8.78793 2 8 2C7.21207 2 6.43185 2.15519 5.7039 2.45672C4.97595 2.75825 4.31451 3.20021 3.75736 3.75736C3.20021 4.31451 2.75825 4.97595 2.45672 5.7039C2.15519 6.43185 2 7.21207 2 8V8.268C2.30403 8.09247 2.64892 8.00005 2.99999 8.00005C3.35106 8.00005 3.69594 8.09246 3.99998 8.26799C4.30401 8.44352 4.55649 8.69599 4.73203 9.00002C4.90757 9.30405 4.99999 9.64893 5 10V12C5 12.5304 4.78929 13.0391 4.41421 13.4142C4.03914 13.7893 3.53043 14 3 14C2.46957 14 1.96086 13.7893 1.58579 13.4142C1.21071 13.0391 1 12.5304 1 12V8C1 6.14348 1.7375 4.36301 3.05025 3.05025C4.36301 1.7375 6.14348 1 8 1C9.85652 1 11.637 1.7375 12.9497 3.05025C14.2625 4.36301 15 6.14348 15 8V12C15 12.5304 14.7893 13.0391 14.4142 13.4142C14.0391 13.7893 13.5304 14 13 14C12.4696 14 11.9609 13.7893 11.5858 13.4142C11.2107 13.0391 11 12.5304 11 12V10C11 9.64893 11.0924 9.30405 11.268 9.00002C11.4435 8.69599 11.696 8.44352 12 8.26799C12.3041 8.09246 12.6489 8.00005 13 8.00005C13.3511 8.00005 13.696 8.09247 14 8.268ZM14 10C14 9.73478 13.8946 9.48043 13.7071 9.29289C13.5196 9.10536 13.2652 9 13 9C12.7348 9 12.4804 9.10536 12.2929 9.29289C12.1054 9.48043 12 9.73478 12 10V12C12 12.2652 12.1054 12.5196 12.2929 12.7071C12.4804 12.8946 12.7348 13 13 13C13.2652 13 13.5196 12.8946 13.7071 12.7071C13.8946 12.5196 14 12.2652 14 12V10ZM2 10V12C2 12.2652 2.10536 12.5196 2.29289 12.7071C2.48043 12.8946 2.73478 13 3 13C3.26522 13 3.51957 12.8946 3.70711 12.7071C3.89464 12.5196 4 12.2652 4 12V10C4 9.73478 3.89464 9.48043 3.70711 9.29289C3.51957 9.10536 3.26522 9 3 9C2.73478 9 2.48043 9.10536 2.29289 9.29289C2.10536 9.48043 2 9.73478 2 10Z" fill="#181D27"/>
    </symbol>
    <symbol id="naver-icon" width="16" height="16" viewBox="0 0 16 16" fill="none" xmlns="http://www.w3.org/2000/svg">
        <rect width="16" height="16" rx="5" fill="#00BF18"/>
        <path d="M4.30762 4.30762V11.6922H6.76916V7.99992L9.23069 11.6922H11.6922V4.30762H9.23069V8.17575L6.76916 4.30762H4.30762Z" fill="white"/>
    </symbol>
    <symbol id="pagination-arrow-left" width="16" height="16" viewBox="0 0 16 16" fill="none" xmlns="http://www.w3.org/2000/svg">
        <path fill-rule="evenodd" clip-rule="evenodd" d="M11.1018 14.4981C11.3866 14.2535 11.4123 13.8321 11.1591 13.5569L6.04672 7.99983L11.1591 2.44274C11.4123 2.16755 11.3866 1.74617 11.1018 1.50156C10.817 1.25695 10.3809 1.28173 10.1277 1.55692L5.01532 7.11401C4.55056 7.61919 4.55056 8.38047 5.01532 8.88565L10.1277 14.4427C10.3809 14.7179 10.817 14.7427 11.1018 14.4981Z" fill="#1570EF"/>
    </symbol>
    <symbol id="pagination-arrow-right" width="16" height="16" viewBox="0 0 16 16" fill="none" xmlns="http://www.w3.org/2000/svg">
        <g clip-path="url(#clip0_922_11825__pagination-arrow-right)">
            <path fill-rule="evenodd" clip-rule="evenodd" d="M4.89818 14.4981C4.61336 14.2535 4.58771 13.8321 4.84088 13.5569L9.95328 7.99983L4.84087 2.44274C4.58771 2.16755 4.61336 1.74617 4.89817 1.50156C5.18299 1.25695 5.61911 1.28173 5.87228 1.55692L10.9847 7.11401C11.4494 7.61919 11.4494 8.38047 10.9847 8.88565L5.87228 14.4427C5.61911 14.7179 5.18299 14.7427 4.89818 14.4981Z" fill="#1570EF"/>
        </g>
        <defs>
            <clipPath id="clip0_922_11825__pagination-arrow-right">
                <rect width="16" height="16" fill="white"/>
            </clipPath>
        </defs>
    </symbol>
    <symbol id="pen" width="16" height="16" viewBox="0 0 16 16" fill="none" xmlns="http://www.w3.org/2000/svg">
        <path d="M3.10988 10.5101L6.14088 12.2601L9.64088 6.19808L6.61088 4.44808L3.11088 10.5111L3.10988 10.5101ZM2.73688 11.4501L3.25088 13.7671L5.51488 13.0531L2.73688 11.4501ZM7.10988 3.58208L10.1399 5.33208L11.0259 3.79908L7.99488 2.04908L7.10988 3.58208ZM1.62988 11.0751L7.62988 0.684082L12.3919 3.43308L6.39288 13.8251H6.39388L2.51188 15.0491L1.62988 11.0751ZM7.62988 15.0481V14.0481H14.6299V15.0481H7.62988Z" fill="#181D27"/>
    </symbol>
    <symbol id="radio-off" width="16" height="16" viewBox="0 0 16 16" fill="none" xmlns="http://www.w3.org/2000/svg">
        <path d="M0.5 8C0.5 3.85786 3.85786 0.5 8 0.5C12.1421 0.5 15.5 3.85786 15.5 8C15.5 12.1421 12.1421 15.5 8 15.5C3.85786 15.5 0.5 12.1421 0.5 8Z" fill="#FDFDFD" stroke="#D5D7DA"/>
    </symbol>
    <symbol id="radio-on" width="16" height="16" viewBox="0 0 16 16" fill="none" xmlns="http://www.w3.org/2000/svg">
        <circle cx="8" cy="8" r="8" fill="#F5FAFF"/>
        <path d="M0.5 8C0.5 3.85786 3.85786 0.5 8 0.5C12.1421 0.5 15.5 3.85786 15.5 8C15.5 12.1421 12.1421 15.5 8 15.5C3.85786 15.5 0.5 12.1421 0.5 8Z" fill="#FDFDFD" stroke="#175CD3"/>
        <rect x="4" y="4" width="8" height="8" rx="4" fill="#175CD3"/>
    </symbol>
    <symbol id="right" width="16" height="16" viewBox="0 0 16 16" fill="none" xmlns="http://www.w3.org/2000/svg">
        <path d="M11.5632 7.03941L5.7456 2.24172C5.0256 1.64932 4 2.21323 4 3.20156L4 12.7984C4 13.7868 5.0256 14.3507 5.744 13.7583L11.5632 8.95909C12.1456 8.47917 12.1456 7.51933 11.5632 7.03941Z" fill="black"/>
    </symbol>
    <symbol id="search" width="100%" height="100%" viewBox="0 0 16 16" fill="none" xmlns="http://www.w3.org/2000/svg">
        <path d="M14.2125 13.3516L10.1547 9.29375C10.7844 8.47969 11.125 7.48438 11.125 6.4375C11.125 5.18438 10.6359 4.00937 9.75156 3.12344C8.86719 2.2375 7.68906 1.75 6.4375 1.75C5.18594 1.75 4.00781 2.23906 3.12344 3.12344C2.2375 4.00781 1.75 5.18438 1.75 6.4375C1.75 7.68906 2.23906 8.86719 3.12344 9.75156C4.00781 10.6375 5.18438 11.125 6.4375 11.125C7.48438 11.125 8.47813 10.7844 9.29219 10.1562L13.35 14.2125C13.3619 14.2244 13.376 14.2338 13.3916 14.2403C13.4071 14.2467 13.4238 14.2501 13.4406 14.2501C13.4575 14.2501 13.4741 14.2467 13.4897 14.2403C13.5052 14.2338 13.5194 14.2244 13.5312 14.2125L14.2125 13.5328C14.2244 13.5209 14.2338 13.5068 14.2403 13.4912C14.2467 13.4757 14.2501 13.459 14.2501 13.4422C14.2501 13.4254 14.2467 13.4087 14.2403 13.3931C14.2338 13.3776 14.2244 13.3635 14.2125 13.3516ZM8.9125 8.9125C8.25 9.57344 7.37187 9.9375 6.4375 9.9375C5.50313 9.9375 4.625 9.57344 3.9625 8.9125C3.30156 8.25 2.9375 7.37187 2.9375 6.4375C2.9375 5.50313 3.30156 4.62344 3.9625 3.9625C4.625 3.30156 5.50313 2.9375 6.4375 2.9375C7.37187 2.9375 8.25156 3.3 8.9125 3.9625C9.57344 4.625 9.9375 5.50313 9.9375 6.4375C9.9375 7.37187 9.57344 8.25156 8.9125 8.9125Z" fill="#535862"/>
    </symbol>
    <symbol id="send" width="100%" height="100%" viewBox="0 0 16 16" fill="none" xmlns="http://www.w3.org/2000/svg">
        <path d="M13.5533 2.44672C13.4271 2.3215 13.2689 2.23347 13.0961 2.1923C12.9232 2.15114 12.7423 2.15843 12.5733 2.21339L2.81992 5.46672C2.63903 5.52404 2.47919 5.63367 2.36058 5.78178C2.24197 5.92989 2.16991 6.10983 2.1535 6.29887C2.13709 6.48791 2.17707 6.67757 2.26839 6.8439C2.35972 7.01023 2.49828 7.14576 2.66659 7.23339L6.71325 9.23339L8.71325 13.2934C8.79364 13.4523 8.91665 13.5857 9.06853 13.6787C9.22041 13.7717 9.39516 13.8207 9.57325 13.8201H9.63992C9.83065 13.806 10.0127 13.7349 10.1625 13.616C10.3123 13.4971 10.4229 13.3359 10.4799 13.1534L13.7799 3.42672C13.8388 3.25867 13.8488 3.07735 13.8087 2.90385C13.7686 2.73035 13.68 2.57182 13.5533 2.44672ZM3.23325 6.38672L11.7466 3.54672L7.01992 8.27339L3.23325 6.38672ZM9.61992 12.7667L7.72659 8.98005L12.4533 4.25339L9.61992 12.7667Z" fill="#717680"/>
    </symbol>
    <symbol id="sound" width="16" height="16" viewBox="0 0 16 16" fill="none" xmlns="http://www.w3.org/2000/svg">
        <path fill-rule="evenodd" clip-rule="evenodd" d="M0.0827637 16L0.0396163 7.64272L3.23361 7.62937L3.27676 15.9866L0.0827637 16ZM6.38877 15.7873L6.32754 3.97414L9.52164 3.96084L9.58288 15.774L6.38877 15.7873ZM12.7232 0.0133007L12.8047 15.7348L15.999 15.7215L15.9175 -3.98327e-07L12.7232 0.0133007Z" fill="#1570EF"/>
    </symbol>
    <symbol id="star-empty" width="100%" height="100%" viewBox="0 0 16 16" fill="none" xmlns="http://www.w3.org/2000/svg">
        <g clip-path="url(#clip0_727_14645__star-empty)">
            <path d="M11.1782 14.2857L8.80438 12.7776C8.31347 12.4657 7.68653 12.4657 7.19562 12.7776L4.82184 14.2857C4.44612 14.5244 3.96924 14.1901 4.06556 13.7555L4.7309 10.7534C4.84712 10.229 4.67405 9.68241 4.27714 9.32047L2.0176 7.26001C1.69606 6.9668 1.8766 6.43124 2.31003 6.39253L5.18652 6.13565C5.74802 6.0855 6.23399 5.72478 6.44454 5.20185L7.53619 2.49062C7.70435 2.07295 8.29565 2.07296 8.46381 2.49062L9.55546 5.20184C9.76601 5.72478 10.252 6.0855 10.8135 6.13565L13.69 6.39253C14.1234 6.43124 14.3039 6.9668 13.9824 7.26001L11.7229 9.32047C11.326 9.68241 11.1529 10.229 11.2691 10.7534L11.9344 13.7555C12.0308 14.1901 11.5539 14.5244 11.1782 14.2857Z" stroke="#FFDC22"/>
        </g>
        <defs>
            <clipPath id="clip0_727_14645__star-empty">
                <rect width="16" height="16" fill="white"/>
            </clipPath>
        </defs>
    </symbol>
    <symbol id="star" width="100%" height="100%" viewBox="0 0 16 16" fill="none" xmlns="http://www.w3.org/2000/svg">
        <path d="M7.46375 13.1996C7.79102 12.9917 8.20898 12.9917 8.53625 13.1996L10.91 14.7078C11.6615 15.1852 12.6152 14.5165 12.4226 13.6473L11.7573 10.6452C11.6798 10.2956 11.7952 9.93122 12.0598 9.68992L14.3193 7.62946C14.9624 7.04304 14.6013 5.97193 13.7344 5.89452L10.858 5.63763C10.4836 5.6042 10.1596 5.36372 10.0193 5.01509L8.92763 2.30387C8.59129 1.46854 7.40871 1.46854 7.07237 2.30387L5.98072 5.01509C5.84036 5.36372 5.51638 5.6042 5.14205 5.63763L2.26555 5.89452C1.39869 5.97193 1.03762 7.04304 1.6807 7.62946L3.94023 9.68992C4.20484 9.93121 4.32022 10.2956 4.24274 10.6452L3.5774 13.6473C3.38477 14.5165 4.33852 15.1852 5.08996 14.7078L7.46375 13.1996Z" fill="#FFDC22"/>
    </symbol>
    <symbol id="trashcan" width="16" height="16" viewBox="0 0 16 16" fill="none" xmlns="http://www.w3.org/2000/svg">
        <path d="M3 4.66667H13.6667M7 7.33333V11.3333M9.66667 7.33333V11.3333M3.66667 4.66667L4.33333 12.6667C4.33333 13.0203 4.47381 13.3594 4.72386 13.6095C4.97391 13.8595 5.31304 14 5.66667 14H11C11.3536 14 11.6928 13.8595 11.9428 13.6095C12.1929 13.3594 12.3333 13.0203 12.3333 12.6667L13 4.66667M6.33333 4.66667V2.66667C6.33333 2.48986 6.40357 2.32029 6.5286 2.19526C6.65362 2.07024 6.82319 2 7 2H9.66667C9.84348 2 10.013 2.07024 10.1381 2.19526C10.2631 2.32029 10.3333 2.48986 10.3333 2.66667V4.66667" stroke="#D92D20" stroke-width="1.33333" stroke-linecap="round" stroke-linejoin="round"/>
    </symbol>
    <symbol id="up" width="16" height="16" viewBox="0 0 16 16" fill="none" xmlns="http://www.w3.org/2000/svg">
        <path fill-rule="evenodd" clip-rule="evenodd" d="M7.99991 7.35873L5.41427 9.94438C5.02374 10.3349 4.46972 10.414 4.17683 10.1212C3.88394 9.82826 3.96308 9.27424 4.35361 8.88372L7.18203 6.05529C7.42533 5.812 7.73208 5.68955 7.99962 5.70263C8.26728 5.68937 8.57428 5.81181 8.81774 6.05525L11.6463 8.88359C12.0368 9.2741 12.1159 9.82811 11.823 10.121C11.5301 10.4139 10.9761 10.3347 10.5856 9.94422L7.99991 7.35873Z" fill="#181D27"/>
    </symbol>
    <symbol id="user" width="16" height="16" viewBox="0 0 16 16" fill="none" xmlns="http://www.w3.org/2000/svg">
        <path d="M8 8C8.79565 8 9.55871 7.68393 10.1213 7.12132C10.6839 6.55871 11 5.79565 11 5C11 4.20435 10.6839 3.44129 10.1213 2.87868C9.55871 2.31607 8.79565 2 8 2C7.20435 2 6.44129 2.31607 5.87868 2.87868C5.31607 3.44129 5 4.20435 5 5C5 5.79565 5.31607 6.55871 5.87868 7.12132C6.44129 7.68393 7.20435 8 8 8ZM8 9C6.93913 9 5.92172 8.57857 5.17157 7.82843C4.42143 7.07828 4 6.06087 4 5C4 3.93913 4.42143 2.92172 5.17157 2.17157C5.92172 1.42143 6.93913 1 8 1C9.06087 1 10.0783 1.42143 10.8284 2.17157C11.5786 2.92172 12 3.93913 12 5C12 6.06087 11.5786 7.07828 10.8284 7.82843C10.0783 8.57857 9.06087 9 8 9ZM13 14V12.5C13 12.1022 12.842 11.7206 12.5607 11.4393C12.2794 11.158 11.8978 11 11.5 11H4.5C4.10218 11 3.72064 11.158 3.43934 11.4393C3.15804 11.7206 3 12.1022 3 12.5V14C3 14.1326 2.94732 14.2598 2.85355 14.3536C2.75979 14.4473 2.63261 14.5 2.5 14.5C2.36739 14.5 2.24021 14.4473 2.14645 14.3536C2.05268 14.2598 2 14.1326 2 14V12.5C2 11.837 2.26339 11.2011 2.73223 10.7322C3.20107 10.2634 3.83696 10 4.5 10H11.5C12.163 10 12.7989 10.2634 13.2678 10.7322C13.7366 11.2011 14 11.837 14 12.5V14C14 14.1326 13.9473 14.2598 13.8536 14.3536C13.7598 14.4473 13.6326 14.5 13.5 14.5C13.3674 14.5 13.2402 14.4473 13.1464 14.3536C13.0527 14.2598 13 14.1326 13 14Z" fill="#181D27"/>
    </symbol>
    <symbol id="warning" width="16" height="16" viewBox="0 0 16 16" fill="none" xmlns="http://www.w3.org/2000/svg">
        <path d="M13.7142 7.99993C13.7142 11.1558 11.1558 13.7142 7.99993 13.7142C4.84402 13.7142 2.28564 11.1558 2.28564 7.99993C2.28564 4.84402 4.84402 2.28564 7.99993 2.28564C11.1558 2.28564 13.7142 4.84402 13.7142 7.99993Z" fill="#FEE4E2"/>
        <path fill-rule="evenodd" clip-rule="evenodd" d="M8.00003 5.42836C6.57987 5.42836 5.42861 6.57963 5.42861 7.99979C5.42861 9.41995 6.57987 10.5712 8.00003 10.5712C9.4202 10.5712 10.5715 9.41995 10.5715 7.99979C10.5715 6.57963 9.4202 5.42836 8.00003 5.42836ZM4.85718 7.99979C4.85718 6.26404 6.26428 4.85693 8.00003 4.85693C9.73579 4.85693 11.1429 6.26404 11.1429 7.99979C11.1429 9.73554 9.73579 11.1426 8.00003 11.1426C6.26428 11.1426 4.85718 9.73554 4.85718 7.99979ZM8.00003 6.57122C8.15783 6.57122 8.28575 6.69914 8.28575 6.85693V7.99979C8.28575 8.15759 8.15783 8.2855 8.00003 8.2855C7.84224 8.2855 7.71432 8.15759 7.71432 7.99979V6.85693C7.71432 6.69914 7.84224 6.57122 8.00003 6.57122ZM7.71432 9.14265C7.71432 8.98485 7.84224 8.85693 8.00003 8.85693H8.00289C8.16069 8.85693 8.28861 8.98485 8.28861 9.14265C8.28861 9.30044 8.16069 9.42836 8.00289 9.42836H8.00003C7.84224 9.42836 7.71432 9.30044 7.71432 9.14265Z" fill="#D92D20"/>
        <path fill-rule="evenodd" clip-rule="evenodd" d="M16 8C16 12.4183 12.4183 16 8 16C3.58172 16 0 12.4183 0 8C0 3.58172 3.58172 0 8 0C12.4183 0 16 3.58172 16 8ZM8 13.7143C11.1559 13.7143 13.7143 11.1559 13.7143 8C13.7143 4.84409 11.1559 2.28571 8 2.28571C4.84409 2.28571 2.28571 4.84409 2.28571 8C2.28571 11.1559 4.84409 13.7143 8 13.7143Z" fill="#FEF3F2"/>
    </symbol>
    <symbol id="white-search" width="100%" height="100%" viewBox="0 0 16 16" fill="none" xmlns="http://www.w3.org/2000/svg">
        <path d="M14.2125 13.3516L10.1547 9.29375C10.7844 8.47969 11.125 7.48438 11.125 6.4375C11.125 5.18438 10.6359 4.00937 9.75156 3.12344C8.86719 2.2375 7.68906 1.75 6.4375 1.75C5.18594 1.75 4.00781 2.23906 3.12344 3.12344C2.2375 4.00781 1.75 5.18438 1.75 6.4375C1.75 7.68906 2.23906 8.86719 3.12344 9.75156C4.00781 10.6375 5.18438 11.125 6.4375 11.125C7.48438 11.125 8.47813 10.7844 9.29219 10.1562L13.35 14.2125C13.3619 14.2244 13.376 14.2338 13.3916 14.2403C13.4071 14.2467 13.4238 14.2501 13.4406 14.2501C13.4575 14.2501 13.4741 14.2467 13.4897 14.2403C13.5052 14.2338 13.5194 14.2244 13.5312 14.2125L14.2125 13.5328C14.2244 13.5209 14.2338 13.5068 14.2403 13.4912C14.2467 13.4757 14.2501 13.459 14.2501 13.4422C14.2501 13.4254 14.2467 13.4087 14.2403 13.3931C14.2338 13.3776 14.2244 13.3635 14.2125 13.3516ZM8.9125 8.9125C8.25 9.57344 7.37187 9.9375 6.4375 9.9375C5.50313 9.9375 4.625 9.57344 3.9625 8.9125C3.30156 8.25 2.9375 7.37187 2.9375 6.4375C2.9375 5.50313 3.30156 4.62344 3.9625 3.9625C4.625 3.30156 5.50313 2.9375 6.4375 2.9375C7.37187 2.9375 8.25156 3.3 8.9125 3.9625C9.57344 4.625 9.9375 5.50313 9.9375 6.4375C9.9375 7.37187 9.57344 8.25156 8.9125 8.9125Z" fill="white"/>
    </symbol>
</svg>