<svg width="16" height="16" viewBox="0 0 16 16" fill="none" xmlns="http://www.w3.org/2000/svg">
<path d="M8 15C6.14348 15 4.36301 14.2625 3.05025 12.9497C1.7375 11.637 1 9.85652 1 8C1 6.14348 1.7375 4.36301 3.05025 3.05025C4.36301 1.7375 6.14348 1 8 1C9.85652 1 11.637 1.7375 12.9497 3.05025C14.2625 4.36301 15 6.14348 15 8C15 9.85652 14.2625 11.637 12.9497 12.9497C11.637 14.2625 9.85652 15 8 15ZM8 14C8.78793 14 9.56815 13.8448 10.2961 13.5433C11.0241 13.2417 11.6855 12.7998 12.2426 12.2426C12.7998 11.6855 13.2417 11.0241 13.5433 10.2961C13.8448 9.56815 14 8.78793 14 8C14 7.21207 13.8448 6.43185 13.5433 5.7039C13.2417 4.97595 12.7998 4.31451 12.2426 3.75736C11.6855 3.20021 11.0241 2.75825 10.2961 2.45672C9.56815 2.15519 8.78793 2 8 2C6.4087 2 4.88258 2.63214 3.75736 3.75736C2.63214 4.88258 2 6.4087 2 8C2 9.5913 2.63214 11.1174 3.75736 12.2426C4.88258 13.3679 6.4087 14 8 14Z" fill="#181D27"/>
<path d="M2.91901 4.19183C3.16901 3.93583 3.41301 3.69583 3.65301 3.47183C3.92601 3.95083 4.27501 4.37983 4.68401 4.74183L4.17601 5.62383C3.68378 5.21612 3.25949 4.73275 2.91901 4.19183ZM13.133 4.10883C12.7842 4.68325 12.3417 5.19531 11.824 5.62383L11.316 4.74283C11.7465 4.36049 12.1084 3.90728 12.386 3.40283C12.629 3.62283 12.878 3.85783 13.133 4.10883ZM7.28101 6.95683L7.45501 5.97083C7.81729 6.01011 8.18274 6.01011 8.54501 5.97083L8.71901 6.95683C8.24138 7.01388 7.75865 7.01388 7.28101 6.95683ZM6.30101 6.75683C5.8466 6.62218 5.40986 6.43385 5.00001 6.19583L5.50001 5.32983C5.80896 5.50859 6.13616 5.65375 6.47601 5.76283L6.30101 6.75483V6.75683ZM11.001 6.19683C10.5908 6.43457 10.1537 6.62257 9.69901 6.75683L9.52401 5.76383C9.86387 5.65475 10.1911 5.50959 10.5 5.33083L11 6.19683H11.001ZM2.86401 11.8968C3.21332 11.3204 3.6568 10.8066 4.17601 10.3768L4.68401 11.2568C4.26401 11.6308 3.90501 12.0748 3.62901 12.5698C3.37901 12.3598 3.12401 12.1368 2.86401 11.8968ZM13.138 11.8988C12.8878 12.1289 12.6324 12.3533 12.372 12.5718C12.0967 12.0771 11.7396 11.6325 11.316 11.2568L11.824 10.3768C12.343 10.8058 12.788 11.3198 13.138 11.8988ZM7.28001 9.04283C7.75765 8.98578 8.24038 8.98578 8.71801 9.04283L8.54401 10.0288C8.18174 9.98956 7.81629 9.98956 7.45401 10.0288L7.28001 9.04283ZM6.30001 9.24283L6.47501 10.2358C6.13516 10.3449 5.80796 10.4901 5.49901 10.6688L5.00001 9.80283C5.4099 9.56516 5.84665 9.37717 6.30101 9.24283H6.30001ZM11 9.80283L10.5 10.6688C10.1908 10.4898 9.86329 10.3447 9.52301 10.2358L9.69801 9.24383C10.158 9.37883 10.593 9.56783 10.999 9.80283H11Z" fill="#181D27"/>
</svg>
