<svg width="16" height="16" viewBox="0 0 16 16" fill="none" xmlns="http://www.w3.org/2000/svg">
<path d="M14.1176 7.99997C14.1176 11.3787 11.3787 14.1176 7.99997 14.1176C4.62129 14.1176 1.88232 11.3787 1.88232 7.99997C1.88232 4.62129 4.62129 1.88232 7.99997 1.88232C11.3787 1.88232 14.1176 4.62129 14.1176 7.99997Z" fill="#FFEAD5"/>
<path fill-rule="evenodd" clip-rule="evenodd" d="M16 8C16 12.4183 12.4183 16 8 16C3.58172 16 0 12.4183 0 8C0 3.58172 3.58172 0 8 0C12.4183 0 16 3.58172 16 8ZM8 13.7143C11.1559 13.7143 13.7143 11.1559 13.7143 8C13.7143 4.84409 11.1559 2.28571 8 2.28571C4.84409 2.28571 2.28571 4.84409 2.28571 8C2.28571 11.1559 4.84409 13.7143 8 13.7143Z" fill="#FFF6ED"/>
<g clip-path="url(#clip0_922_11867)">
<path fill-rule="evenodd" clip-rule="evenodd" d="M7.59575 5.05807C7.71908 4.98863 7.85823 4.95215 7.99977 4.95215C8.14131 4.95215 8.28046 4.98863 8.40379 5.05807C8.52713 5.1275 8.63048 5.22756 8.70389 5.34857L8.70468 5.34988L11.0298 9.23145L11.032 9.23524C11.1039 9.35977 11.142 9.50095 11.1424 9.64475C11.1428 9.78854 11.1055 9.92994 11.0343 10.0549C10.9631 10.1798 10.8604 10.2839 10.7365 10.3568C10.6125 10.4297 10.4717 10.469 10.3279 10.4705L10.3249 10.4706L5.67166 10.4705C5.52787 10.469 5.387 10.4297 5.26307 10.3568C5.13913 10.2839 5.03645 10.1798 4.96524 10.0549C4.89403 9.92994 4.85678 9.78854 4.85718 9.64475C4.85758 9.50095 4.89563 9.35977 4.96754 9.23524L4.96977 9.23145L7.29565 5.34857C7.36906 5.22756 7.47242 5.1275 7.59575 5.05807ZM7.99977 5.50117C7.95259 5.50117 7.90621 5.51333 7.8651 5.53647C7.82417 5.55952 7.78985 5.59267 7.7654 5.63276L5.44208 9.51136C5.4187 9.55249 5.40633 9.59896 5.4062 9.64628C5.40606 9.69422 5.41848 9.74135 5.44222 9.78299C5.46596 9.82463 5.50018 9.85933 5.54149 9.88364C5.58244 9.90774 5.62894 9.92079 5.67643 9.92153H10.3231C10.3706 9.92079 10.4171 9.90774 10.458 9.88364C10.4994 9.85933 10.5336 9.82463 10.5573 9.78299C10.5811 9.74135 10.5935 9.69422 10.5933 9.64628C10.5932 9.59897 10.5808 9.5525 10.5575 9.51138L8.23448 5.63331C8.23437 5.63313 8.23426 5.63295 8.23414 5.63276C8.2097 5.59267 8.17537 5.55952 8.13444 5.53647C8.09333 5.51333 8.04695 5.50117 7.99977 5.50117ZM7.99977 6.62741C8.15138 6.62741 8.27428 6.75031 8.27428 6.90192V7.99996C8.27428 8.15157 8.15138 8.27447 7.99977 8.27447C7.84816 8.27447 7.72526 8.15157 7.72526 7.99996V6.90192C7.72526 6.75031 7.84816 6.62741 7.99977 6.62741ZM7.72526 9.098C7.72526 8.94639 7.84816 8.82349 7.99977 8.82349H8.00252C8.15412 8.82349 8.27703 8.94639 8.27703 9.098C8.27703 9.24961 8.15412 9.37251 8.00252 9.37251H7.99977C7.84816 9.37251 7.72526 9.24961 7.72526 9.098Z" fill="#EC4A0A"/>
</g>
<defs>
<clipPath id="clip0_922_11867">
<rect width="6.58824" height="6.58824" fill="white" transform="translate(4.70581 4.70605)"/>
</clipPath>
</defs>
</svg>
