<svg xmlns="http://www.w3.org/2000/svg" width="16" height="16" viewBox="0 0 16 16" fill="none">
<path d="M7.29288 7.99996L5.87888 6.58596C5.7878 6.49166 5.73741 6.36536 5.73854 6.23426C5.73968 6.10316 5.79227 5.97776 5.88497 5.88505C5.97768 5.79235 6.10308 5.73977 6.23418 5.73863C6.36528 5.73749 6.49158 5.78788 6.58588 5.87896L7.99988 7.29296L9.41388 5.87896C9.46 5.83121 9.51518 5.79312 9.57618 5.76691C9.63718 5.74071 9.70279 5.72691 9.76918 5.72634C9.83557 5.72576 9.90141 5.73841 9.96286 5.76355C10.0243 5.78869 10.0801 5.82582 10.1271 5.87277C10.174 5.91971 10.2112 5.97554 10.2363 6.03699C10.2614 6.09843 10.2741 6.16427 10.2735 6.23066C10.2729 6.29705 10.2591 6.36266 10.2329 6.42366C10.2067 6.48467 10.1686 6.53984 10.1209 6.58596L8.70688 7.99996L10.1209 9.41396C10.1686 9.46009 10.2067 9.51526 10.2329 9.57626C10.2591 9.63726 10.2729 9.70287 10.2735 9.76926C10.2741 9.83565 10.2614 9.90149 10.2363 9.96294C10.2112 10.0244 10.174 10.0802 10.1271 10.1272C10.0801 10.1741 10.0243 10.2112 9.96286 10.2364C9.90141 10.2615 9.83557 10.2742 9.76918 10.2736C9.70279 10.273 9.63718 10.2592 9.57618 10.233C9.51518 10.2068 9.46 10.1687 9.41388 10.121L7.99988 8.70696L6.58588 10.121C6.49158 10.212 6.36528 10.2624 6.23418 10.2613C6.10308 10.2602 5.97768 10.2076 5.88497 10.1149C5.79227 10.0222 5.73968 9.89676 5.73854 9.76566C5.73741 9.63456 5.7878 9.50826 5.87888 9.41396L7.29288 7.99996Z" fill="#F04438"/>
<path d="M8 14C8.78793 14 9.56815 13.8448 10.2961 13.5433C11.0241 13.2417 11.6855 12.7998 12.2426 12.2426C12.7998 11.6855 13.2417 11.0241 13.5433 10.2961C13.8448 9.56815 14 8.78793 14 8C14 7.21207 13.8448 6.43185 13.5433 5.7039C13.2417 4.97595 12.7998 4.31451 12.2426 3.75736C11.6855 3.20021 11.0241 2.75825 10.2961 2.45672C9.56815 2.15519 8.78793 2 8 2C6.4087 2 4.88258 2.63214 3.75736 3.75736C2.63214 4.88258 2 6.4087 2 8C2 9.5913 2.63214 11.1174 3.75736 12.2426C4.88258 13.3679 6.4087 14 8 14ZM8 15C6.14348 15 4.36301 14.2625 3.05025 12.9497C1.7375 11.637 1 9.85652 1 8C1 6.14348 1.7375 4.36301 3.05025 3.05025C4.36301 1.7375 6.14348 1 8 1C9.85652 1 11.637 1.7375 12.9497 3.05025C14.2625 4.36301 15 6.14348 15 8C15 9.85652 14.2625 11.637 12.9497 12.9497C11.637 14.2625 9.85652 15 8 15Z" fill="#F04438"/>
</svg>