<svg width="16" height="16" viewBox="0 0 16 16" fill="none" xmlns="http://www.w3.org/2000/svg">
<g clip-path="url(#clip0_334_7596)">
<path d="M15.8442 8.18417C15.8442 7.64035 15.8001 7.09359 15.706 6.55859H8.16016V9.63925H12.4813C12.302 10.6328 11.7258 11.5117 10.8822 12.0703V14.0692H13.4602C14.9741 12.6758 15.8442 10.6181 15.8442 8.18417Z" fill="#4285F4"/>
<path d="M8.15999 16.0007C10.3176 16.0007 12.1372 15.2923 13.4629 14.0694L10.885 12.0705C10.1677 12.5585 9.24174 12.8348 8.16293 12.8348C6.07584 12.8348 4.30623 11.4268 3.67128 9.53369H1.01099V11.5943C2.36906 14.2958 5.13518 16.0007 8.15999 16.0007V16.0007Z" fill="#34A853"/>
<path d="M3.66852 9.53331C3.33341 8.53974 3.33341 7.46387 3.66852 6.4703V4.40967H1.01116C-0.123511 6.67019 -0.123511 9.33342 1.01116 11.5939L3.66852 9.53331V9.53331Z" fill="#FBBC04"/>
<path d="M8.15999 3.16644C9.30053 3.1488 10.4029 3.57798 11.2289 4.36578L13.5129 2.08174C12.0667 0.72367 10.1471 -0.0229773 8.15999 0.000539111C5.13518 0.000539111 2.36906 1.70548 1.01099 4.40987L3.66834 6.4705C4.30035 4.57449 6.0729 3.16644 8.15999 3.16644V3.16644Z" fill="#EA4335"/>
</g>
<defs>
<clipPath id="clip0_334_7596">
<rect width="16" height="16" fill="white"/>
</clipPath>
</defs>
</svg>
