<svg width="16" height="16" viewBox="0 0 16 16" fill="none" xmlns="http://www.w3.org/2000/svg">
<path d="M3 4.66667H13.6667M7 7.33333V11.3333M9.66667 7.33333V11.3333M3.66667 4.66667L4.33333 12.6667C4.33333 13.0203 4.47381 13.3594 4.72386 13.6095C4.97391 13.8595 5.31304 14 5.66667 14H11C11.3536 14 11.6928 13.8595 11.9428 13.6095C12.1929 13.3594 12.3333 13.0203 12.3333 12.6667L13 4.66667M6.33333 4.66667V2.66667C6.33333 2.48986 6.40357 2.32029 6.5286 2.19526C6.65362 2.07024 6.82319 2 7 2H9.66667C9.84348 2 10.013 2.07024 10.1381 2.19526C10.2631 2.32029 10.3333 2.48986 10.3333 2.66667V4.66667" stroke="#D92D20" stroke-width="1.33333" stroke-linecap="round" stroke-linejoin="round"/>
</svg>
