<svg width="16" height="16" viewBox="0 0 16 16" fill="none" xmlns="http://www.w3.org/2000/svg">
<path d="M13.7142 7.99993C13.7142 11.1558 11.1558 13.7142 7.99993 13.7142C4.84402 13.7142 2.28564 11.1558 2.28564 7.99993C2.28564 4.84402 4.84402 2.28564 7.99993 2.28564C11.1558 2.28564 13.7142 4.84402 13.7142 7.99993Z" fill="#FEE4E2"/>
<path fill-rule="evenodd" clip-rule="evenodd" d="M8.00003 5.42836C6.57987 5.42836 5.42861 6.57963 5.42861 7.99979C5.42861 9.41995 6.57987 10.5712 8.00003 10.5712C9.4202 10.5712 10.5715 9.41995 10.5715 7.99979C10.5715 6.57963 9.4202 5.42836 8.00003 5.42836ZM4.85718 7.99979C4.85718 6.26404 6.26428 4.85693 8.00003 4.85693C9.73579 4.85693 11.1429 6.26404 11.1429 7.99979C11.1429 9.73554 9.73579 11.1426 8.00003 11.1426C6.26428 11.1426 4.85718 9.73554 4.85718 7.99979ZM8.00003 6.57122C8.15783 6.57122 8.28575 6.69914 8.28575 6.85693V7.99979C8.28575 8.15759 8.15783 8.2855 8.00003 8.2855C7.84224 8.2855 7.71432 8.15759 7.71432 7.99979V6.85693C7.71432 6.69914 7.84224 6.57122 8.00003 6.57122ZM7.71432 9.14265C7.71432 8.98485 7.84224 8.85693 8.00003 8.85693H8.00289C8.16069 8.85693 8.28861 8.98485 8.28861 9.14265C8.28861 9.30044 8.16069 9.42836 8.00289 9.42836H8.00003C7.84224 9.42836 7.71432 9.30044 7.71432 9.14265Z" fill="#D92D20"/>
<path fill-rule="evenodd" clip-rule="evenodd" d="M16 8C16 12.4183 12.4183 16 8 16C3.58172 16 0 12.4183 0 8C0 3.58172 3.58172 0 8 0C12.4183 0 16 3.58172 16 8ZM8 13.7143C11.1559 13.7143 13.7143 11.1559 13.7143 8C13.7143 4.84409 11.1559 2.28571 8 2.28571C4.84409 2.28571 2.28571 4.84409 2.28571 8C2.28571 11.1559 4.84409 13.7143 8 13.7143Z" fill="#FEF3F2"/>
</svg>
